<svg xmlns="http://www.w3.org/2000/svg" xml:space="preserve" fill-rule="evenodd" stroke-linejoin="round" stroke-miterlimit="2" clip-rule="evenodd" viewBox="0 0 1500 1667"><g fill-rule="nonzero"><path fill="#bdbcbc" d="M1379.88 328.25 870.12 32.36a239.12 239.12 0 0 0-240.24 0l-509.75 295.9C45.8 371.4.01 451.13.01 537.43v591.79c0 86.3 45.8 166.03 120.12 209.18l509.75 295.9a239.12 239.12 0 0 0 240.24 0l509.76-295.9c74.33-43.15 120.13-122.88 120.13-209.18v-591.8c0-86.29-45.8-166.03-120.13-209.18"/><path fill="#e8aa00" d="M356.9 990.63h325.48L395.45 766.15c-61.28-47.95-73.86-136.06-28.48-199.4l70.61-98.55a201.46 201.46 0 0 1 163.74-84.3h370c94.24 0 170.62 76.81 170.62 171.56v120.58H810.9l291.61 219.88c64.1 48.33 76.8 139.9 28.29 204.01l-77.74 102.76a201.42 201.42 0 0 1-160.62 80.07h-364.9c-94.24 0-170.64-76.8-170.64-171.56V990.63Z"/><path fill="#a08500" d="M522 400.6c-1.4.6-2.78 1.21-4.16 1.84l293.05 273.6h107.59L522.01 400.6Zm451.82 864.58L682.37 990.63h-84.3l372.54 275.93c1.08-.45 2.15-.9 3.21-1.38"/></g></svg>