<svg xmlns="http://www.w3.org/2000/svg" xml:space="preserve" fill-rule="evenodd" stroke-linejoin="round" stroke-miterlimit="2" clip-rule="evenodd" viewBox="0 0 2134 2134"><g fill-rule="nonzero"><path fill="#bdbcbc" d="m1696.54 561.59-509.76-295.9a239.12 239.12 0 0 0-240.24 0L436.79 561.6c-74.33 43.14-120.12 122.88-120.12 209.18v591.8c0 86.29 45.8 166.02 120.12 209.17l509.75 295.9a239.12 239.12 0 0 0 240.24 0l509.76-295.9c74.33-43.15 120.13-122.88 120.13-209.18v-591.8c0-86.3-45.8-166.04-120.13-209.18"/><path fill="#e8aa00" d="M673.56 1223.96h325.48L712.12 999.48c-61.28-47.95-73.87-136.05-28.48-199.4l70.6-98.55A201.46 201.46 0 0 1 918 617.24h370c94.23 0 170.62 76.82 170.62 171.57v120.57h-331.06l291.62 219.89c64.1 48.33 76.8 139.9 28.28 204l-77.73 102.77a201.42 201.42 0 0 1-160.62 80.06H844.2c-94.25 0-170.64-76.8-170.64-171.56v-120.57Z"/><path fill="#a08500" d="M838.67 633.93c-1.4.6-2.78 1.21-4.17 1.84l293.05 273.6h107.6L838.67 633.93Zm451.82 864.58-291.45-274.55h-84.3l372.54 275.93c1.07-.45 2.15-.9 3.21-1.38"/></g></svg>