<svg clip-rule="evenodd" fill-rule="evenodd" stroke-linejoin="round" stroke-miterlimit="2" viewBox="0 0 21125 17454" xmlns="http://www.w3.org/2000/svg" xmlns:xlink="http://www.w3.org/1999/xlink"><clipPath id="a"><path clip-rule="nonzero" d="m2.594 2.112h21119.8v17447.9h-21119.8z"/></clipPath><clipPath id="b"><path clip-rule="evenodd" d="m2.594 2.128h21119.8v17447.9h-21119.8z"/></clipPath><clipPath id="c"><path clip-rule="evenodd" d="m2.594 2.128h21119.8v17447.9h-21119.8z"/></clipPath><g clip-path="url(#a)"><g opacity=".1"><g clip-path="url(#b)"><g fill="#eabe1a" opacity=".25"><path d="m19367.9 2189.12 4973.2 1384.87-43.489-4384.97-4929.71 3000.11zm5020.05 1447.71-5137.5-1431.46 5092.55-3100.24 44.948 4531.69z" fill-rule="nonzero"/><path d="m19346.2 2231.55 2786.64 7838.44 2258.98-1378.93-50.286-5069.84-4995.34-1389.66zm2760.21 7909.09-2834.27-7977.71 5115.29 1422.66 50.912 5131.67-2331.93 1423.38z" fill-rule="nonzero"/><path d="m-4043.15-2165.48 3642.58 5663.88 840.651-5643.15-4483.23-20.73zm3670.03 5794.27-3756.95-5840.65 4623.93 18.334-866.979 5822.32z" fill-rule="nonzero"/><path d="m-359.971 3543.23 2803.88 354.062-1968.88-5964.97-835 5610.91zm2872.79 410.677-2926.64-370.938 2.787-22.161 868.906-5831.35 2054.95 6224.45z" fill-rule="nonzero"/><path d="m494.19-2159.33 1981.38 6000.03 2092.47-8537.32zm1988.1 6168.83-2043.57-6188.39 14.922-9.192 4186.77-2609.77-2158.12 8807.34z" fill-rule="nonzero"/><path d="m2528.89 3944.69 6250.89 6572.76 2309.79-7301.17-8560.68 728.411zm6270.89 6662.99-26.406-27.917-6345.42-6674.27 8727.45-743.151-2355.62 7445.34z" fill-rule="nonzero"/><path d="m-568.654 16043.1 3567.67 5624.33-38.872 24.657-3567.67-5624.33 38.871-24.657z"/><g fill-rule="nonzero"><path d="m-497.25 16155 3464.66 5459.58 417.813-2466.72-3882.47-2992.87zm3490.13 5587.99-3672.97-5787.19 4115.34 3171.49-1.823 14.01z"/><path d="m11136.9 3221.83-2307.89 7292.14 8254.74-4521.8zm-2387.32 7390.39 2358.54-7455.44 6078.15 2833.33z"/><path d="m17118.2 6027.02-8097.79 4434.69 8430.29-2734.38zm-8322.73 4557.55-17.5-43.047 8374.71-4586.25 351.614 1806.75-20.026 5.235-8688.8 2817.32z"/><path d="m11161.6 3182.39 5737.81 2673.88-5001.07-3489.32-736.745 815.442zm5963.54 2830.47-6040.81-2815.62 808.36-891.562 5256.15 3665.68-23.698 41.51z"/><path d="m11966.6 2358.22 5148.86 3591.38 410.859-3775.34-5559.71 183.959zm5187.89 3675.44-5332.06-3719.24 5755.68-189.922-2.761 27.161-420.859 3882.01z"/><path d="m17498 7729.96 4442.06 2256.51-4768.31-3935.91zm4801.22 2493.15-4843.12-2462.58-1.146-12.135-354.739-1816.75 5199.01 4291.46z"/><path d="m17572.6 2173.8-401.484 3707.89 2097.63-3662.45-1696.15-45.443zm-472.656 3927.71 431.979-3976.56 1816.8 50.286-2248.78 3926.28z"/><path d="m17167.1 5985.26 4901.07 4047.19-2763.93-7778.36zm5003.02 4191.9-5065.23-4181.2 9.87-17.188 2199.4-3838.39 17.604 49.088 2838.36 7987.68z"/><path d="m11366-1644.29 548.829 3954.76 5558.75-181.927-6107.58-3772.84zm509.141 4004.43-571.38-4098.28 43.489 25.704 6283.54 3882.66-5755.65 189.922z"/><path d="m4616.27-4699.1-2105.99 8595.73 8558.44-1567.68zm-2169.71 8655.65 2144.69-8750.89 30.469 31.849 6538.78 7122.68-8713.93 1596.35z"/><path d="m11091.3 2371.94-8127.01 1489.01 8134.92-694.037-7.916-794.974zm-8610.6 1577.27-6.537-46.172 8664.84-1586.85 8.88 895.495-8667.19 737.526z"/><path d="m4699.85-4678.83 6393.59 6965.31 217.005-3963.39-6610.6-3001.93zm6433.91 7080.52-36.588-42.865-6588.57-7174.45 6849.79 3109.09-.834 17.109-223.802 4091.12z"/><path d="m11139.5 2367.44 7.526 760.807 693.984-767.786zm-39.505 882.891-9.219-929.636 857.344-8.541z"/><path d="m11140 2320.19 728.646-7.24-523.776-3760.03zm781.406 39.479-831.197 8.255 222.083-4059.92 45.234-2.448 563.88 4054.12z"/><path d="m-367.51 3591.55-479.636 2720.68 3263.39-2371.43-2783.75-349.245zm-544.844 2827.84 506.12-2881.72 2946.8 371.745-3452.92 2509.97z"/><path d="m-832.576 6360.24 9524.69 4134.9-6215.39-6537.86-3309.3 2402.97zm9719.01 4269.66-9813.41-4259.66 3409.04-2476.33 14.271 15.911 6390.1 6720.08z"/><path d="m8951.72 10725.8 1934.27 2366.9 171.38-657.057-2105.65-1709.84zm1955.39 2468.26-2282.29-2794.69 2487.68 2017.6-205.39 777.083z"/><path d="m8837.62 10572.1 2247.53 1825.08 6258.88-4584.3zm2247.11 1883.44-2342.79-1902.53 41.068-12.578 8827.06-2863.88-6525.34 4778.98z"/><path d="m10924.5 13130.6 9449.9 4396.88-9274.61-5066.09-175.287 669.219zm10091.6 4746.3-10147.7-4720.62 199.479-764.87 9968.88 5445.16-20.703 40.339z"/><path d="m11127.6 12422.9 9855.68 5382.97-3517.94-10024.3-6337.73 4641.38zm9940.1 5483.62-10027.5-5476.67 6449.48-4724.01 10.339 30.052 3567.66 10170.6z"/><path d="m17519.7 7790.98 3496.28 9966.3 1079.14-7639.69-4575.42-2326.62zm3515.31 10164.1-31.041-90.182-3567.63-10167.6 4709.79 2394.66-3.854 16.094-1107.27 7847.06z"/><path d="m21132.4 17839.6 3352.55 238.099-15-1513.7-3337.55 1275.6zm3399.3 288.881-3613.07-255.573 3596.88-1377.71 16.198 1633.28z"/><path d="m22138.6 10137.2-1083.75 7682.94 3414.64-1306.43-54.896-5533.65-2275.99-842.864zm-1142.32 7755.99 1103.49-7820.86 2360.73 875.052 55.521 5598.1-3519.74 1347.71z"/><path d="m10944.3 13190.6 2825.08 6141.46 7181.2-1484.69-10006.3-4656.77zm2797.47 6195.99-7.213-17.032-2885.7-6274.45 57.578 27.526 10193.1 4743.44-7357.76 1520.52z"/><path d="m-854.039 6426.85 288.203 9601.22 7529.51-1235.88-7817.71-8365.34zm242.552 9656.95-.286-28.203-292.683-9751.88 7962.92 8519.74-44.167 8.463-7625.78 1251.88z"/><path d="m-784.609 6432.23 7786.2 8333.44 1755.62-4191.72zm7802.08 8418.7-24.349-26.822-7967.01-8525.76 9793.18 4251.82-1801.82 4300.76z"/><path d="m-531.253 16068.9 3938.2 3036.56 3545.05-4263.85-7483.26 1227.29zm3944.92 3101.74-17.239-14.843-4042.53-3114.87 7715.1-1265.86-3655.34 4395.57z"/><path d="m7042.64 14857.8 1227.68 7124.22 5436.95-2625.23-6664.64-4498.98zm1192.13 7193.96-5.338-31.12-1251.07-7261.74 43.542 30.755 6779.92 4574.19-5567.06 2687.92z"/><path d="m8794.74 10607.7-1739.95 4156.46 3803.46-1629.97-2063.51-2526.48zm-1829.56 4244.74 1817.6-4335.08 2152.03 2635.1-3969.64 1699.97z"/><path d="m7058.37 14813.4 6640.26 4481.22-2813.86-6120.49-3826.41 1639.27zm6753.12 4612.76-69.818-45.521-6780.96-4576.35 41.094-17.474 3905.47-1674.14 10.287 20.99 2893.93 6292.5z"/><path d="m2992.5 3874.74c2.5 252.265-200.494 457.343-451.718 459.843-251.328 2.474-457.318-198.515-459.818-450.781-2.5-251.25 199.453-458.307 450.781-460.807 251.224-2.5 458.255 200.495 460.755 451.745"/><path d="m17950.7 2189.14c1.953 197.994-158.229 362.421-358.255 364.401-198.985 1.979-362.422-159.245-364.375-357.214-1.979-200 158.203-364.427 357.213-366.406 200-2.005 363.438 159.219 365.417 359.219"/><path d="m7279.91 14755.9c1.641 165.781-132.76 303.828-298.541 305.469-168.802 1.692-305.886-133.62-307.526-299.454-1.667-167.838 132.734-303.828 301.51-305.494 165.807-1.641 302.891 131.64 304.557 299.479"/><path d="m11173.7 13118c1.666 167.839-131.667 304.844-298.49 306.511-167.839 1.666-303.88-132.631-305.521-300.521-1.667-166.823 131.667-302.865 299.531-304.531 166.823-1.641 302.839 131.718 304.48 298.541"/><path d="m19639.6 2214.56c1.641 166.849-132.708 303.854-298.515 305.495-167.839 1.693-304.896-132.63-306.537-299.479-1.666-166.823 132.656-304.87 300.521-306.563 165.833-1.64 302.891 133.724 304.531 300.547"/><path d="m17764 7797.61c1.641 167.865-132.708 303.907-299.531 305.573-166.823 1.667-303.854-131.692-305.521-299.557-1.666-166.823 132.657-304.844 299.532-306.51 166.823-1.667 303.88 133.671 305.52 300.494"/><path d="m12145.4 2346.38c1.667 168.828-132.656 305.885-298.489 307.526-167.839 1.667-304.87-132.656-306.537-301.511-1.666-165.833 132.682-302.864 300.547-304.531 165.833-1.64 302.865 132.682 304.479 298.516"/><path d="m11291.2 3171.04c.989 98.49-78.646 177.683-176.146 178.646-98.49.99-176.667-76.641-177.63-175.13-.964-97.474 75.651-176.641 174.14-177.63 97.5-.964 178.672 76.614 179.636 174.114"/><path d="m11267.4 2294.81c.938 95.495-77.656 176.667-176.172 177.63-97.474.99-177.682-78.619-178.62-174.088-.963-98.516 77.605-179.714 175.131-180.677 98.489-.964 178.671 78.646 179.661 177.135"/><path d="m17416.6 5905.41c1.64 166.797-131.693 302.865-298.516 304.505-167.838 1.667-303.88-131.692-305.521-298.515-1.666-167.839 131.667-303.854 299.532-305.521 166.848-1.641 302.864 131.693 304.505 299.531"/><path d="m9284.83 10463.1c3.177 320.651-254.557 583.542-575.156 586.719s-582.526-254.505-585.703-575.182c-3.177-321.615 253.567-583.438 574.166-586.615 320.625-3.203 583.49 253.438 586.693 575.078"/><path d="m21593.4 17698.3c3.177 320.598-254.531 583.437-575.156 586.64-320.599 3.177-583.49-254.505-586.667-575.078-3.203-321.615 254.531-583.542 575.156-586.745 320.599-3.177 583.49 253.568 586.667 575.183"/></g></g></g><g clip-path="url(#c)" fill="#eabe1a" fill-rule="nonzero"><path d="m24481.6 17733.9-43.49-4383.98-4944.74 1482.53 4988.23 2901.46zm47.057 81.901-5153.02-2996.3 5108.07-1533.33 44.948 4529.64z"/><path d="m24437.6 13301.7-50.286-5069.84-2285.89-1333.7-2630.62 7892.34 4966.8-1488.8zm-4.297-5096.95 50.886 5130.65-5086.07 1526.12 2675.49-8032.47 2359.69 1375.7z"/><path d="m655.172 19542.9-952.396-5626.33-3529.56 5735.23 4481.95-108.907zm54.713 45.677-4622.63 112.344 3640.34-5916.22 982.291 5803.88z"/><path d="m688.56 19464.1 1850.18-6004.97-2796.3 411.849 946.12 5593.12zm-13.099 203.204-984.427-5811.9-3.229-24.166 2918.72-427.005-1931.07 6263.07z"/><path d="m4832.91 22012.2-2261.35-8493.07-1862.01 6036.28 4123.36 2456.8zm74.375 98.671-4237.68-2523.91-15.13-9.922 1920.42-6228.8 2332.39 8762.63z"/><path d="m11196.3 13972.2-2454.19-7255.83-6119.3 6695.76 8573.49 560.078zm66.823 50.573-8740.44-569.401 6211.8-6797.24 25.833-30.417 2502.81 7397.06z"/><path d="m2701.97-4340.32-3455.52 5695.29 39.427 22.708 3456.59-5693.28-40.495-24.714z"/><path d="m3177.45-1804.08-466.666-2458.93-3355.73 5526.43 3822.4-3067.5zm48.308 4.557 2.083 13.047-4051.59 3255.7 3557.45-5860.1 492.058 2591.35z"/><path d="m17134.1 11073.6-8342.79-4354.66 2452.06 7244.74zm102.552 1.953-6020.76 2954.66-2505.94-7407.03 8526.69 4452.37z"/><path d="m17466.7 9332.4-8482.84-2565.13 8184.14 4272.76 298.698-1707.63zm32.787-38.516 20.156 5.782-315.729 1812.45-8464.04-4419.82 16.641-44.427 8742.97 2646.01z"/><path d="m12021.7 14802.2 4930.94-3585.05-5683.67 2786.41 752.734 798.646zm5177.99-3708.15-5182.37 3772.53-825.911-876.354 5983.78-2936.17 24.505 40z"/><path d="m17652.4 14882.9-485.651-3765.44-5076.59 3695.21 5562.24 70.234zm49.453 22.682 3.282 26.094-5758.28-74.349 5257.27-3823.62 497.734 3871.88z"/><path d="m17221 11013.5 4689.3-4029.04-4396.38 2347.5-292.916 1681.54zm-69.167 121.197 318.646-1822.37.885-12.162 4793.39-2557.42-5112.92 4391.95z"/><path d="m19393.5 14805.3-2169.84-3620.96 474.922 3698.12 1694.92-77.162zm80.834 42.422-1815.47 84.427-510.755-3964.22 2326.22 3879.79z"/><path d="m19428.4 14770.7 2609.09-7832.73-4819.87 4141.8 2210.78 3690.94zm28.75 62.109-16.589 49.349-2275.1-3793.85-10.234-18.021 4981.33-4280.08-2679.4 8042.6z"/><path d="m17600.6 14931.7-5561.28-73.333-470.261 3967.92 6031.54-3894.58zm156.328-45.833-6205.29 4005.94-42.969 27.5 489.974-4108.83 5758.28 75.391z"/><path d="m11193 14858.7-8587.84-1396.2 2276.02 8550.13zm91.145-32.083-6396.22 7251.3-29.843 32.526-2317.84-8705.57 8743.91 1421.75z"/><path d="m11206.8 14018.3-8147.03-531.093 8154.95 1328.07-7.917-796.98zm47.813-44.739 8.906 897.526-8694.64-1416.25 5.651-45.234 8680.08 563.958z"/><path d="m11514.1 18858.9-295.599-3960.21-6254.17 7091.09 6549.77-3130.89zm47.344 10.651 1.172 16.042-6786.77 3245.73 6444.97-7304.06 35.781-41.536 304.844 4083.83z"/><path d="m11964.5 14812.9-709.089-756.849 7.579 763.828zm107.995 45.13-857.292 8.542-9.245-930.677z"/><path d="m11544 18627.4 449.114-3768.65-728.672 7.266 279.558 3761.38zm17.526 247.162-45.235-.573-302.578-4053.7 831.198-8.281-483.385 4062.55z"/><path d="m2510.22 13417.2-3309.77-2305.05 533.516 2712.66 2776.25-407.604zm124.948 30.964-2938.86 429.192-563.203-2871.07 3502.06 2441.88z"/><path d="m2570.38 13400.6 6084.51-6659.17-9440.81 4321.43 3356.3 2337.73zm20.547 48.073-13.958 14.14-3457.47-2408.05 9726.98-4453.98-6255.55 6847.89z"/><path d="m10981.2 4755.2-184.401-655.521-1886.95 2405.96 2071.35-1750.44zm55.443 14.531-2447.16 2067.74 2226.38-2840.49 220.782 772.76z"/><path d="m17358.3 9251.05-6348.54-4457.94-2210.94 1867.4 8559.48 2590.55zm268.646 130-8882.08-2687.79-41.328-11.718 2304.58-1949.74 6618.83 4649.24z"/><path d="m11023.1 4727.64 9172.29-5249.56-9360.83 4582.01 188.541 667.552zm9828.46-5570.7-9858.93 5640.36-214.584-760.756 10052-4922.6 21.51 42.995z"/><path d="m17480.2 9278.03 3318.46-10092.4-9746.98 5578.93 6428.52 4513.46zm35.625 45.859-9.74 29.219-6541.9-4592.73 9916.9-5677.08-3365.26 10240.6z"/><path d="m22062.8 6850.24-1230.47-7615.7-3297.94 10032.9 4528.41-2417.16zm47.318 9.61 4.219 16.015-4661.41 2488.8 3365.31-10235.5 29.193-93.776 1262.68 7824.48z"/><path d="m24309.2 358.872-15-1513.59-3347.19 303.698 3362.19 1209.89zm46.901 66.875-3623.46-1303.8 3607.29-328.359 16.172 1632.16z"/><path d="m24364.6 5941.89-54.843-5532.76-3439.9-1238.28 1235.91 7658.91 2258.83-887.865zm-8.958-5565.36 55.521 5598.05-2342.94 920.911-1258.36-7795.42 3545.78 1276.46z"/><path d="m20765.1-854.25-7209.24-1342.53-2702.71 6196.38zm148.568-20.573-10097 4945.16-57.005 28.724 2760.7-6331.67 6.849-17.162 7386.49 1374.95z"/><path d="m6841.54 2478.54-7552.5-1084.82-97.76 9604.01zm49.844-40.703 44.323 6.589-7792.4 8676.38 99.245-9753.75-.261-27.135 7649.09 1097.92z"/><path d="m8718.38 6658.33-1838.41-4154.04-7619.38 8485.76zm62.578 25.52-9706.95 4444.74 7796.33-8683.52 23.828-26.354 1886.8 4265.13z"/><path d="m6828.91 2429.42-3628.93-4191.51-3877.19 3113.28zm118.281 65.156-7738.67-1113.12 3979.95-3194.69 16.927-14.218 3741.8 4322.03z"/><path d="m13493.3-2219.26-5487.94-2516.56-1086.15 7147.27 6574.09-4630.7zm94.401-7.995-6687.86 4707.21-42.917 33.62 1106.77-7287.16 4.766-30.234 5619.24 2576.56z"/><path d="m10768.2 4058.75-3835.03-1553 1822.03 4120 2013-2567.01zm76.198-19.844-2099.35 2677.42-1903.23-4299.11z"/><path d="m10794 4018.29 2691.9-6174.17-6550.08 4612.37zm33.568 39.87-9.87 20.208-3937.92-1595.18-41.407-14.662 6688.88-4710.26 68.88-48.906-2768.57 6348.8z"/><path d="m3087.67 13471.8c-2.473-249.271-209.505-452.239-460.729-449.765-251.328 2.526-453.281 209.557-450.807 458.828 2.5 253.255 208.49 454.297 459.818 451.797 251.224-2.5 454.245-207.578 451.718-460.86"/><path d="m18076.3 14861.6c-1.979-199.974-165.416-360.157-365.416-358.151-199.011 1.953-359.193 165.364-357.214 365.312 1.979 200.078 165.391 359.219 364.375 357.24 200.026-1.98 360.235-164.323 358.255-364.401"/><path d="m7158.46 2510.57c-1.667-167.838-138.75-302.187-304.558-300.521-168.776 1.667-303.177 138.698-301.51 306.537 1.64 165.833 138.724 300.182 307.526 298.489 165.781-1.64 300.182-138.672 298.542-304.505"/><path d="m11084 4067.67c-1.641-166.848-137.682-301.171-304.505-299.505-167.865 1.641-301.198 138.672-299.531 305.495 1.666 167.865 137.682 301.172 305.52 299.505 166.823-1.64 300.183-137.656 298.516-305.495"/><path d="m19764.4 14802.6c-1.667-167.839-138.698-302.162-304.531-300.495-167.865 1.666-302.188 138.646-300.521 306.51 1.641 165.807 138.672 300.208 306.51 298.516 165.834-1.641 300.157-138.724 298.542-304.531"/><path d="m17778.5 9256.95c-1.641-166.823-138.698-301.224-305.521-299.557-166.849 1.666-301.198 138.75-299.531 305.573 1.64 166.822 138.698 301.119 305.521 299.453 166.822-1.641 301.171-138.646 299.531-305.469"/><path d="m12269.1 14817.8c-1.64-166.823-138.672-300.182-304.479-298.542-167.865 1.693-302.214 137.735-300.547 304.558 1.641 167.864 138.672 302.161 306.537 300.494 165.807-1.666 300.13-138.672 298.489-306.51"/><path d="m11398.7 14010.3c-.938-96.432-82.136-176.016-179.636-175.052-98.515.99-175.104 82.161-174.14 178.594.963 98.463 79.14 176.12 177.63 175.13 97.5-.964 177.135-80.182 176.146-178.672"/><path d="m11392.3 14890.9c-.989-99.531-81.172-178.099-179.661-177.109-97.5.964-176.12 81.094-175.13 180.625.963 96.432 81.145 175.078 178.619 174.115 98.516-.964 177.11-81.224 176.172-177.631"/><path d="m17468.7 11155.7c-1.667-167.839-137.682-302.162-304.531-300.495-167.865 1.666-301.198 138.646-299.505 306.484 1.64 167.891 137.682 302.188 305.52 300.521 166.823-1.667 300.157-138.672 298.516-306.51"/><path d="m9248.09 6759.59c-3.177-320.599-266.068-577.344-586.667-574.14-320.598 3.177-577.369 265.104-574.192 585.677s265.104 578.281 585.703 575.078c320.625-3.177 578.333-266.042 575.156-586.615"/></g></g></g></svg>