<svg clip-rule="evenodd" fill-rule="evenodd" stroke-linejoin="round" stroke-miterlimit="2" viewBox="0 0 25296 17980" xmlns="http://www.w3.org/2000/svg"><g fill="#eabe1a" opacity=".1"><g opacity=".25"><path d="m21829 4684.29 3315.47 923.246-28.992-2923.32-3286.48 2000.07zm3346.7 965.137-3425-954.304 3395.03-2066.82 29.966 3021.13zm2.9 3405.743-1347.47 822.533 1350.24-540.817-2.775-281.716zm-1509.34 920.625-14.358-27.988 1553.96-947.9 3.559 358.838-1543.16 617.05z" fill-rule="nonzero"/><path d="m21814.5 4712.58 1857.76 5225.62 1505.99-919.287-33.525-3379.9-3330.22-926.442zm1840.14 5272.71-1889.51-5318.46 3410.19 948.438 33.942 3421.11-1554.62 948.925v-.012zm-17433.06-8204.06 2428.38 3775.92 560.437-3762.1-2988.82-13.821zm2446.68 3862.85-2504.64-3893.77 3082.62 12.225-577.987 3881.54z" fill-rule="nonzero"/><path d="m8677.04 5587.03 1869.25 236.042-1312.58-3976.65-556.666 3740.61zm1915.19 273.788-1951.09-247.292 1.858-14.775 579.271-3887.57 1369.96 4149.64z" fill-rule="nonzero"/><path d="m9246.46 1785.33 1320.92 4000.02 1394.98-5691.54-2715.91 1691.53v-.004zm1325.4 4112.55-1362.38-4125.59 9.95-6.13 2791.18-1739.85-1438.75 5871.54v.021z" fill-rule="nonzero"/><path d="m10603 5854.68 4167.25 4381.83 1539.86-4867.46-5707.12 485.608.012.017zm4180.58 4442-17.604-18.613-4230.29-4449.5 5818.29-495.433-1570.42 4963.54.021.004z" fill-rule="nonzero"/><path d="m8537.92 13920.3 2378.45 3749.55-25.913 16.437-2378.45-3749.55z"/><g fill-rule="nonzero"><path d="m8585.54 13994.9 2309.78 3639.72 278.541-1644.48-2588.32-1995.25zm2326.75 3725.33-2448.65-3858.12 2743.56 2114.32-1.216 9.342-293.696 1734.46zm5429.31-12347.46-1538.59 4861.42 5503.17-3014.53-3964.57-1846.89-.008.009zm-1591.55 4926.92 1572.36-4970.29 4052.1 1888.89-5624.46 3081.41-.004-.005z"/><path d="m20329.2 7242.88-5398.54 2956.46 5620.21-1822.92-221.667-1133.54zm-5548.5 3038.37-11.666-28.7 5583.12-3057.5 234.412 1204.5-13.354 3.491-5792.54 1878.21h.025z"/><path d="m16358.1 5346.47 3825.21 1782.59-3334.05-2326.22-491.163 543.629zm3975.7 1886.98-4027.2-1877.08 538.904-594.375 3504.1 2443.78-15.8 27.675z"/><path d="m16894.8 4797.03 3432.57 2394.25 273.908-2516.89-3706.47 122.641zm3458.59 2450.3-3554.7-2479.5 3837.12-126.612-1.837 18.108-280.575 2588z"/><path d="m20582.4 8378.21 2961.37 1504.34-3178.87-2623.94zm3200.82 1662.1-3228.75-1641.72-.763-8.092-236.496-1211.16 3466.01 2860.97z"/><path d="m20632.1 4674.08-267.654 2471.93 1398.42-2441.63-1130.77-30.296zm-315.104 2618.47 287.988-2651.04 1211.2 33.525-1499.19 2617.52z"/><path d="m20361.8 7215.04 3267.38 2698.12-1842.62-5185.58-1424.75 2487.45v.009zm3335.35 2794.6-3376.82-2787.47 6.579-11.458 1466.27-2558.92 11.737 32.725 1892.24 5325.12v-.004zm-7202.75-7880.95 365.883 2636.51 3705.83-121.283-4071.72-2515.23zm339.425 2669.62-380.921-2732.19 28.996 17.133 4189.04 2588.44-3837.1 126.616h-.017zm-4839.325-4706.16-1404 5730.5 5705.62-1045.12-4301.62-4685.38h-.004zm-1446.48 5770.42 1429.79-5833.92 20.313 21.233 4359.17 4748.46-5809.29 1064.24.021-.012z"/><path d="m16311.2 4806.18-5418 992.671 5423.29-462.692-5.279-529.979h-.012zm-5740.38 1051.51-4.359-30.779 5776.58-1057.9 5.921 596.996-5778.12 491.683h-.021z"/><path d="m12050.2 105.663 4262.42 4643.54 144.666-2642.26-4407.04-2001.28h-.042zm4289.25 4720.33-24.396-28.575-4392.38-4782.96 4566.54 2072.73-.554 11.408-149.2 2727.41-.017-.012z"/><path d="m16343.3 4803.18 5.017 507.204 462.658-511.858zm-26.337 588.592-6.146-619.759 571.563-5.691z"/><path d="m16343.7 4771.67 485.763-4.825-349.184-2506.68-136.579 2511.51zm520.938 26.321-554.133 5.504 148.058-2706.62 30.154-1.629 375.921 2702.74zm-8192.638 821.259-319.758 1813.78 2175.59-1580.95-1855.83-232.829zm-363.229 1885.23 337.412-1921.15 1964.53 247.829-2301.95 1673.32z"/><path d="m8361.96 7465.04 6349.79 2756.6-4143.6-4358.58-2206.2 1601.98v.004zm6479.33 2846.44-6542.29-2839.78 2272.69-1650.88 9.512 10.608 4260.08 4480.04.004.008z"/><path d="m14884.8 10375.4 1289.51 1577.93 114.254-438.037-1403.77-1139.9zm1303.59 1645.5-1521.53-1863.12 1658.46 1345.07-136.929 518.058z"/><path d="m14808.8 10273 1498.35 1216.72 4172.58-3056.2-5670.96 1839.48h.025zm1498.07 1255.62-1561.86-1268.35 27.38-8.383 5884.71-1909.25-4350.21 3185.99h-.021zm6665.93 3619.08 2291.11 2502.12-23.23-2341.73-2267.88-160.384zm2322.74 2583.59-2400.17-2620.95 2375.85 168.683 24.321 2452.27z"/><path d="m16200 11978.6 6299.92 2931.25-6183.08-3377.4-116.858 446.146h.025zm6727.75 3164.2-6765.08-3147.08 132.988-509.916 6645.92 3630.1-13.805 26.895-.016.001z"/><path d="m16335.4 11506.8 6570.46 3588.65-2345.3-6682.92-4225.17 3094.26.005.016zm6626.75 3655.75-6685-3651.11 4299.67-3149.34 6.892 20.033 2378.44 6780.42h.004z"/><path d="m20596.8 8418.88 2330.85 6644.21 719.43-5093.12-3050.28-1551.08v-.008zm2343.54 6776.08-20.696-60.12-2378.42-6778.42 3139.86 1596.44-2.567 10.729-738.179 5231.38v-.009z"/></g><path d="m22945.7 15118.5 2345.16 2561.06-23.117 21.167-2345.16-2561.05 23.117-21.171z"/><path d="m88.221 6928.21 619.204 1484.83 2007.08-5120.71-2659.81 255.625 33.521 3380.26zm620.021 1568.53-651.479-1565.52-33.834-3411.77 14.042-1.475 2725.42-260.954-9.842 23.541-2044.3 5216.17v.012z" fill-rule="nonzero"/><path d="m50.804 3155.3 3.579 360.471 2650.43-253.508-802.971-828.3-1851.04 721.337zm-27.566 395.625-4.134-416.754 1890.42-737.133 862.571 889.999-2748.86 263.888z" fill-rule="nonzero"/><path d="m1921.71 2408.97 706.792 729.392-710.071-1060.38zm805.417 876.513-837.479-863.475-4.446-448.888 865.208 1292.69-23.283 19.671z" fill-rule="nonzero"/><path d="m1930.13 2040.35 814.134 1214.81 3360.8-1468.08-4174.92 253.267h-.013zm803.125 1253.78-859.758-1282.71 4406.67-266.963-3546.91 1549.67z" fill-rule="nonzero"/><path d="m2778.62 3273.58 5840.58 2294.58-2432.43-3782.57-3408.16 1487.99h.009zm5919.67 2359.48-6001.38-2358.67 3501.55-1528.45 2499.84 3887.12-.013-.001z" fill-rule="nonzero"/><path d="m2840.19 3331.27 5479.33 4108.75 321.579-1829.18-5800.92-2279.57h.005zm5501.29 4164.86-5705.46-4278.08 6040.42 2373.02-334.963 1905.07.004-.009zm-7546.784 3366.47 962.917 6011.25 5509.25-3882.4-6472.17-2128.84v-.017zm940 6066.33-4.304-25.416-974.375-6086.75 23.541 7.1 6556.25 2158.12-5601.12 3946.93.013.012z" fill-rule="nonzero"/><path d="m1754.65 16913.4-17.692-25.279 5555.21-3914.95 17.687 26.579-5555.21 3913.65h.004z" fill-rule="nonzero"/><path d="m6334.92 9963.25 962.1 2960.26 1006.63-5396.88-1968.73 2436.61zm970.07 3086.16-1004.98-3091.84 2057.4-2546.75-1052.41 5638.58-.001.008z" fill-rule="nonzero"/><path d="m7310.96 12974.3 1222.6 941.825-18.896 24.529-1222.6-941.821 18.895-24.533z"/><path d="m7318.33 12979.5 1189.12 916.287-188.267-6280.92-1000.85 5364.62v.004zm1222.64 981.616-1257.36-967.829 1.959-10.104 1056.23-5660.71 199.167 6638.67v-.025zm-7816.178-5483.996 64.708 2338.66 3048.85-1434.17-3113.56-904.496zm35.054 2386.5-68.35-2429.74 20.85 5.833 3215.07 934.984-3167.57 1488.92z" fill-rule="nonzero"/><path d="m728.458 8445.58 3134.41 909.984-1129.24-6023.92-2005.17 5113.96v-.025zm3174.38 954.813-3215.7-935.663 6.508-14.754 2050.25-5232.38 1158.94 6182.79z" fill-rule="nonzero"/><path d="m816.533 10836.3 6430.54 2115.8-3367.66-3555.52-3062.86 1439.73h-.021zm6539.08 2184.44-59.134-18.838-6564.33-2160.1 3154.23-1483.44 3469.26 3662.38h-.021z" fill-rule="nonzero"/><path d="m2760.26 3311.29 1134.79 6043.96 4403.92-1890.21-5538.71-4153.77v.016zm1111.08 6088.75-1156.08-6162.67 32.429 24.462 5613.67 4209.96-4490 1928.26-.021-.016z" fill-rule="nonzero"/><path d="m3930.4 9405.17 3334.51 3520.02-959.408-2952.29-2375.1-567.729zm3406.75 3642.55-3501.79-3697.53 2494.05 596.996 1007.74 3100.54z" fill-rule="nonzero"/><path d="m3932.76 9373.62 2378.47 569.063 1966.77-2434.55-4345.25 1865.49h.008zm2390.23 604.479-2489.98-596.425 4550.08-1953-2060.11 2549.43h.004zm-6149.919 5505.601 1538.05 1365.76-1569.01-4488.08 30.954 3122.33v-.009zm1607.41 1468.96-1638.77-1455.19-33.004-3326.72 1671.77 4781.92v-.004z" fill-rule="nonzero"/><path d="m141.129 12262.9 1561.4 4466.67-939.32-5866.67-633.18 281.733 11.096 1118.28v-.016zm1589.29 4643.29-1620.73-4638.29-11.337-1143.73 688.492-307.05 974.321 6082.12-30.746 6.959zm21274.881-1788.19 2235.04 158.729-10-1009.13-2225.04 850.4zm2266.2 192.584-2408.72-170.38 2397.92-918.47 10.8 1088.85v-.004z" fill-rule="nonzero"/><path d="m23676.1 9983.04-722.5 5121.96 2276.43-870.954-36.595-3689.1-1517.33-561.908zm-761.541 5170.67 735.658-5213.92 1573.82 583.371 37.012 3732.07-2346.49 898.471z" fill-rule="nonzero"/><path d="m23706.7 9961.33 1486.39 550.763-11.32-1141.06-1475.07 590.296zm1517.66 595.329-1604.1-594.462 1591.88-638.333 12.225 1232.8zm-9011.16 1461.941 1883.38 4094.3 4787.46-989.791-6670.83-3104.51h-.009zm1864.98 4130.66-4.808-11.354-1923.8-4182.96 38.384 18.35 6795.42 3162.29-4905.17 1013.68-.025-.009zm-9730.51-8639.8 192.133 6400.83 5019.67-823.925-5211.79-5576.88-.008-.034zm161.7 6437.96-.192-18.804-195.121-6501.25 5308.62 5679.83-29.446 5.646-5083.83 834.583-.033-.008z" fill-rule="nonzero"/><path d="m8393.96 7513.04 5190.79 5555.62 1170.42-2794.48zm5201.38 5612.46-16.229-17.879-5311.33-5683.83 6528.79 2834.55-1201.22 2867.17-.013-.004z" fill-rule="nonzero"/><path d="m8562.88 13937.5 2625.47 2024.38 2363.37-2842.57-4988.83 818.195zm2629.95 2067.83-11.492-9.895-2695.02-2076.58 5143.42-843.909-2436.89 2930.38h-.017z" fill-rule="nonzero"/><path d="m13612.1 13130.1 818.454 4749.5 3624.64-1750.15-4443.08-2999.33-.008-.021zm794.758 4795.96-3.558-20.75-834.046-4841.17 29.025 20.504 4519.96 3049.46-3711.37 1791.94-.009.009z" fill-rule="nonzero"/><path d="m14780.2 10296.7-1159.96 2770.97 2535.64-1086.65-1375.68-1684.33zm-1219.7 2829.83 1211.74-2890.05 1434.69 1756.74-2646.43 1133.32z" fill-rule="nonzero"/><path d="m13622.6 13100.5 4426.83 2987.48-1875.9-4080.33-2550.94 1092.85h.004zm4502.08 3075.18-46.546-30.35-4520.62-3050.9 27.396-11.65 2603.64-1116.1 6.859 13.995 1929.29 4195h-.016zm-15123.62-12904.31c1.667 168.179-132.97 306.216-301.129 307.883-167.571 1.667-304.896-133.662-306.562-301.842-1.667-166.82 132.987-303.52 300.537-305.187 168.159-1.688 305.488 132.325 307.154 299.146m7910.94 2536.67c1.666 168.175-133.667 304.895-301.146 306.562-167.554 1.646-304.879-132.346-306.546-300.521-1.667-167.5 132.967-305.541 300.521-307.208 167.483-1.667 305.504 133.667 307.171 301.167m-6846.64 3561.25c1.321 133.387-105.466 242.308-238.783 243.629-132.692 1.321-241.617-105.471-242.95-238.838-1.321-133.316 105.467-242.237 238.175-243.558 133.3-1.337 242.242 105.45 243.558 238.767m4747.85-3772.22c.917 93.804-74.083 169.6-168.562 170.537-93.104.921-170.208-73.35-171.146-167.171-.937-93.783 74.671-170.937 167.796-171.854 94.479-.937 170.975 74.688 171.912 168.488m12070.89-912.76c1.304 131.996-105.483 241.613-238.838 242.934-132.654 1.32-241.612-106.163-242.916-238.142-1.317-133.333 105.471-242.954 238.146-244.271 133.333-1.337 242.291 106.146 243.608 239.479m-14240.18 5223.57c1.666 168.175-133.663 304.896-301.146 306.546-167.554 1.683-305.575-132.329-307.242-300.488-1.646-167.483 133.683-304.22 301.234-305.887 167.483-1.667 305.487 132.362 307.154 299.829m832.25 3038.02c1.096 111.217-88.505 201.858-199.721 202.971-111.217 1.112-202.533-87.725-203.646-198.958-1.096-111.284 88.421-203.3 199.654-204.409 111.213-1.096 202.621 89.113 203.713 200.396" fill-rule="nonzero"/><path d="m13770.3 13062.1c1.091 110.521-88.509 202.55-199.029 203.646-112.534 1.125-203.925-89.084-205.017-199.638-1.113-111.891 88.492-202.55 201.008-203.662 110.538-1.096 201.925 87.758 203.038 199.654m2595.9-1091.9c1.112 111.892-87.779 203.229-198.992 204.342-111.892 1.108-202.587-88.421-203.683-200.35-1.109-111.212 87.779-201.908 199.687-203.021 111.217-1.091 201.896 87.813 202.988 199.029m7500.4-2032.58c1.096 111.217-88.454 203.229-199.008 204.342-111.892 1.108-203.246-89.1-204.342-200.334-1.108-111.212 88.438-202.604 200.35-203.712 110.555-1.096 201.909 88.504 203 199.704m-1856.5-5236.37c1.096 111.234-88.47 202.571-199.008 203.663-111.892 1.129-203.267-88.421-204.358-199.654-1.113-111.213 88.437-203.246 200.346-204.375 110.558-1.092 201.929 89.15 203.02 200.366m-1250.4 3722.04c1.092 111.908-88.47 202.604-199.687 203.712-111.217 1.113-202.571-87.791-203.679-199.704-1.113-111.212 88.437-203.229 199.687-204.337 111.213-1.113 202.584 89.112 203.679 200.329m-3745.7-3634.16c1.113 112.555-88.437 203.925-198.991 205.021-111.892 1.109-203.246-88.437-204.359-201.008-1.112-110.554 88.455-201.908 200.363-203.021 110.558-1.096 201.912 88.454 202.987 199.008m-569.5 549.78c.659 65.663-52.433 118.454-117.433 119.1-65.658.659-117.775-51.096-118.417-116.754-.645-64.983 50.434-117.762 116.092-118.421 65-.641 119.117 51.075 119.758 116.075m-15.9-584.16c.625 63.667-51.771 117.779-117.446 118.421-64.983.662-118.454-52.413-119.079-116.058-.646-65.676 51.733-119.809 116.75-120.45 65.663-.642 119.117 52.429 119.775 118.087m4099.5 2407.08c1.092 111.2-87.796 201.913-199.012 203.005-111.892 1.112-202.584-87.796-203.679-199.009a201.04 201.04 0 0 1 199.687-203.683c111.233-1.092 201.908 87.796 203.004 199.687m-11779.27 6742.97c1.109 112.517-88.421 203.229-199.654 204.338-111.891 1.112-202.604-87.813-203.716-200.329-1.092-110.609 87.812-201.909 199.725-203.038 111.212-1.091 202.55 88.438 203.645 199.029m-100.33-6401.01c2.117 213.733-169.671 389.654-383.471 391.771-213.716 2.133-388.975-170.346-391.096-384.063-2.116-214.408 169.688-389.671 383.405-391.808 213.799-2.134 389.029 169.691 391.162 384.1m6458.4 2696.51c2.116 213.766-169.709 389.029-383.438 391.146-213.733 2.116-388.354-169.671-390.471-383.455-2.116-214.408 169.046-388.958 382.78-391.075 213.75-2.137 388.991 168.959 391.129 383.384m8205.7 4823.5c2.117 213.733-169.687 388.958-383.437 391.096-213.733 2.116-388.992-169.671-391.113-383.388-2.133-214.408 169.688-389.025 383.438-391.162 213.733-2.117 388.996 169.046 391.112 383.454" fill-rule="nonzero"/></g><g fill-rule="nonzero"><path d="m25238 15047.5-28.992-2922.66-3296.49 988.354 3325.48 1934.3zm31.37 54.6-3435.35-1997.53 3405.38-1022.22 29.962 3019.75zm-97.27-6707.93-1360.71-511.804 1363.51 794.2-2.796-282.396zm30.609-21.717 3.558 358.767-1572.45-917.484 13.783-28.279 1555.11 586.996z"/><path d="m25208.8 12092.7-33.525-3379.9-1523.92-889.129-1753.75 5261.58 3311.2-992.537v-.021zm-2.862-3397.97 33.92 3420.43-3390.71 1017.41 1783.66-5355 1573.12 917.137.001.017zm-15852.148 7558.77-634.929-3750.89-2353.04 3823.49 2987.97-72.605zm36.475 30.45-3081.75 74.896 2426.89-3944.15 654.859 3869.25z"/><path d="m9376.08 16201 1233.45-4003.32-1864.2 274.566 630.75 3728.75zm-8.733 135.467-656.288-3874.6-2.149-16.112 1945.82-284.667-1287.38 4175.38v.004z"/><path d="m12139 17899.7-1507.57-5662.04-1241.34 4024.18 2748.91 1637.86v-.005zm49.584 65.784-2825.12-1682.6-10.088-6.617 1280.28-4152.53 1554.93 5841.75v.004z"/><path d="m16381.2 12539.7-1636.13-4837.21-4079.53 4463.83 5715.67 373.387-.009-.012zm44.55 33.716-5826.96-379.604 4141.2-4531.5 17.221-20.279 1668.54 4931.38-.004.008zm-5707.45-12242.083-2303.68 3796.86 26.283 15.141 2304.39-3795.52-26.996-16.475z"/><path d="m11035.3 2022.16-311.108-1639.29-2237.15 3684.29 2548.26-2045zm32.204 3.038 1.392 8.7-2701.06 2170.47 2371.63-3906.74 328.037 1727.57zm9272.296 8582.102-5561.88-2903.1 1634.7 4829.83 3927.15-1926.72.021-.008zm68.37 1.304-4013.84 1969.78-1670.62-4938 5684.46 2968.25.004-.021z"/><path d="m20561.5 9446.46-5655.21-1710.08 5456.08 2848.5 199.134-1138.42h-.009zm21.859-25.675 13.437 3.854-210.487 1208.3-5642.71-2946.55 11.096-29.621 5828.67 1764.01h-.004z"/><path d="m16931.5 13093 3287.29-2390.04-3789.11 1857.6 501.82 532.434zm3452-2472.1-3454.91 2515.02-550.609-584.237 3989.19-1957.45 16.333 26.667z"/><path d="m20685.3 13146.8-323.767-2510.3-3384.4 2463.47 3708.16 46.821zm32.966 15.121 2.188 17.395-3838.85-49.562 3504.85-2549.08 331.82 2581.25z"/><path d="m20397.7 10567.2 3126.2-2686.03-2930.92 1565-195.279 1121.03zm-46.109 80.796 212.429-1214.91.592-8.109 3195.59-1704.94-3408.61 2927.97z"/><path d="m21846 13095-1446.56-2413.97 316.613 2465.42 1129.95-51.441zm53.887 28.279-1210.31 56.287-340.504-2642.81 1550.82 2586.53z"/><path d="m21869.2 13072 1739.4-5221.83-3213.25 2761.2 1473.85 2460.62v.013zm19.167 41.408-11.059 32.896-1516.73-2529.23-6.825-12.017 3320.89-2853.38-1786.27 5361.75v-.013zm-1237.567 65.892-3707.52-48.891-313.508 2645.28 4021.03-2596.39zm104.221-30.558-4136.86 2670.62-28.646 18.333 326.65-2739.22 3838.85 50.258zm-4376.021-18.042-5725.21-930.8 1517.35 5700.08 4207.88-4769.29-.012.008zm60.766-21.387-4264.17 4834.21-19.896 21.683-1545.23-5803.71 5829.29 947.829-.005-.012z"/><path d="m16388.2 12570.4-5431.38-354.063 5436.62 885.384-5.275-531.321h.025zm31.875-29.825 5.938 598.35-5796.42-944.167 3.767-30.158 5786.71 375.975h.004z"/><path d="m16593.1 15797.5-197.066-2640.14-4169.46 4727.42 4366.5-2087.25.025-.021zm31.563 7.1.779 10.692-4524.5 2163.82 4296.67-4869.38 23.854-27.692 203.229 2722.55h-.029z"/><path d="m16893.3 13100.1-472.725-504.567 5.05 509.221zm71.996 30.088-571.529 5.695-6.162-620.454z"/><path d="m16613 15643.2 299.408-2512.43-485.779 4.845 186.371 2507.58zm11.683 164.775-30.154-.379-201.721-2702.47 554.134-5.521zm-15071.703-14495.615-1521.11-65.955 14.462 1457.97 1506.65-1392.01zm76.092-28.229-1613.54 1490.9-15.483-1561.15 1629.03 70.246zm8961.428 10885.569-2206.51-1536.7 355.68 1808.44 1850.83-271.738zm83.3 20.642-1959.24 286.129-375.47-1914.05 2334.71 1627.92z"/><path d="m10630.6 12158.6 4056.34-4439.46-6293.88 2880.96 2237.53 1558.49.004.013zm13.696 32.05-9.304 9.425-2304.98-1605.36 6484.67-2969.33-4170.38 4565.25-.004.012z"/><path d="m16237.8 6395.01-122.933-437.013-1257.97 1603.98 1380.9-1166.96zm36.963 9.687-1631.44 1378.49 1484.25-1893.66 147.188 515.175z"/><path d="m20489.2 9392.25-4232.38-2971.96-1473.96 1244.93 5706.33 1727.03zm179.096 86.667-5921.38-1791.86-27.554-7.812 1536.39-1299.83 4412.54 3099.5h-.004zm4444.604-7054.657-23.229-2341.74-2241.04 2547.19 2264.27-205.45zm31.092 27.829-2372.05 215.9 2347.74-2667.52 24.304 2451.62z"/><path d="m16265.8 6376.64 6114.88-3499.7-6240.54 3054.67 125.696 445.034h-.029zm6552.29-3713.8-6572.62 3760.24-143.058-507.17 6701.33-3281.74 14.342 28.667h.008z"/><path d="m20570.5 9410.25 2212.31-6728.25-6498 3719.29 4285.67 3008.97.025-.017zm23.75 30.571-6.496 19.479-4361.25-3061.82 6611.25-3784.72-2243.5 6827.08v-.021z"/><path d="m23625.5 7791.71-820.313-5077.12-2198.63 6688.58 3018.94-1611.44v-.017zm31.546 6.404 2.812 10.68-3107.6 1659.2 2243.54-6823.67 19.463-62.517 841.788 5216.33-.001-.03z"/></g><path d="m22798.5 2637.42 2293.91-2606.51 23.529 20.709-2293.91 2606.51-23.529-20.708z"/><path d="m165.125 14682.4 2664.34 202.013-2108.25-5079.17-589.617 1497.54 33.521 3379.6v.017zm2702.6 213.629 10.35 24.721-2730.09-208.733-14.063-.467-33.854-3412.48 620.296-1578.87 2147.36 5175.83z" fill-rule="nonzero"/><path d="m2034.01 15759.3 786.371-844.062-2654.93-201.404 3.579 361.091zm853.159-870.17-844.775 906.316-1904.65-698.729-4.13-416.738 2753.56 209.15z" fill-rule="nonzero"/><path d="m2057.64 16115.7 688.904-1075.02-692.188 743.35 3.284 331.667zm808.246-1204.85-839.375 1310.35-4.463-449.6 820.192-879.95z" fill-rule="nonzero"/><path d="m6249.21 16323.2-3389.25-1401.62-789.875 1232.03 4179.12 169.583h.004zm175.905 38.383-4411.08-178.575 834.146-1300.23 3576.93 1478.8h.008z" fill-rule="nonzero"/><path d="m6330.96 16322.5 2356.94-3830.24-5793.96 2410.3 3437 1419.94zm12.463 39.413-3531.18-1459.24 5953.42-2477.55-2422.24 3936.79h.004z" fill-rule="nonzero"/><path d="m8708.92 12449.8-357.813-1823.78-5396.75 4217.58 5754.58-2393.79-.021-.012zm35.75 19.079-5992.21 2492 5619.5-4391.33 372.709 1899.34v-.004zm-1556.09-7371.619-5585.17-3771.34-843.509 6028.46 6428.67-2257.13.008.013zm69.113 8.679-6512.17 2286.79-23.367 8.246 853.455-6104.92 3.804-24.15 5678.29 3834.05-.016-.012z" fill-rule="nonzero"/><path d="m1599.65 1285.09-17.15 26.979 5631.71 3803.02 17.171-25.625-5631.75-3804.38h.021z" fill-rule="nonzero"/><path d="m8333.54 10539.7-1113.47-5375.08-903.196 2977.48 2016.67 2397.61v-.005zm56.058 116.021-2107.5-2504.56 943.438-3113.25 1164.06 5617.83v-.021z" fill-rule="nonzero"/><path d="m7213.62 5089.4 1203.67-965.271 19.383 24.171-1203.67 965.271z"/><path d="m8347.33 10451.8 63.663-6282.71-1170.71 939.046 1107.05 5343.67v-.005zm28.421 291.875-1168.3-5638.58-2.167-10.017 1237.93-991.979-67.467 6640.58v-.005zm-4543.411-1968.095-3076.7-1373.58-18.295 2340.15 3095-966.579zm89.183 5.155-3195.92 996.337-20.712 7.604 20.158-2430.62 3196.47 1426.68z" fill-rule="nonzero"/><path d="m2847.83 14846.7 1009.53-6046.54-3115.73 973.521 2106.2 5073.04v-.02zm12.517 112.412-2153.62-5190.54-6.809-15.295 3196.53-998.059-1036.1 6203.88v.021z" fill-rule="nonzero"/><path d="m3873.08 8758.79 3296.47-3621.8-6387.29 2242.66 3090.82 1379.15zm7.708 38.075-3183.04-1421.08 6520.25-2288.2 58.733-21.354-3395.94 3730.62z" fill-rule="nonzero"/><path d="m8330.08 10602-4440.54-1802.25-1014.69 6066.04 5455.25-4263.79-.021.004zm62.225-8.646-5529.08 4321.46-31.929 24.392 1033.63-6183.75 4527.38 1837.9h.008z" fill-rule="nonzero"/><path d="m6287.25 8133 900.675-2968.73-3264.03 3584.95 2363.35-616.217zm24.408 25.904-2481.7 647.171 3427.76-3766.47-946.063 3119.3z" fill-rule="nonzero"/><path d="m8308.29 10560.1-2014.67-2395.62-2366.72 616.25 4381.38 1779.38h.017zm106.629 75.313-4587.92-1861.46 2477.68-645.137 2110.26 2506.6h-.017zm-8337.198-4766.523 1479.69-4518.38-1510.66 1396.08 30.971 3122.31v-.008zm-29.6 191.287-32.988-3327.35 1609.58-1486.86-1576.6 4814.21v-.004z" fill-rule="nonzero"/><path d="m89.783 7085 638.646 271.063 822.759-5884.88-1472.5 4496.21 11.096 1117.6zm1516.67-5784.54-853.492 6100.21-694.458-294.6-11.354-1143.73 1528.44-4668.96 30.867 7.067v.016zm23516.747 2163.67-10-1009.06-2231.46 202.466 2241.46 806.596zm31.266 44.584-2415.64-869.2 2404.86-218.909 10.779 1088.11z" fill-rule="nonzero"/><path d="m25160.1 7186.12-36.562-3688.51-2293.26-825.521 823.942 5105.92 1505.88-591.909v.021zm-5.97-3710.24 37.012 3732.03-1561.96 613.941-838.905-5196.96 2363.86 850.975v.012z" fill-rule="nonzero"/><path d="m25171.8 8361.29-11.321-1140.99-1475.19 579.529 1486.51 561.459zm31.267 45.312-1604.22-605.916 1592-627.625 12.225 1233.54zm-2442.667-5751.222-4806.17-895.016-1801.8 4130.92 6607.96-3235.9h.013zm99.041-13.712-6731.38 3296.77-38 19.145 1840.47-4221.12 4.567-11.441 4924.33 916.633.008.017zm-9381.441 2235.572-5035-723.213-65.171 6402.67 5100.17-5679.46.004.005zm33.229-27.134 29.55 4.392-5194.92 5784.25 66.163-6502.5-.175-18.092 5099.38 731.946.004.004z" fill-rule="nonzero"/><path d="m14729.3 7663.75-1225.61-2769.36-5079.58 5657.17 6305.21-2887.81-.016.004zm41.721 17.017-6471.29 2963.16 5197.54-5789 15.883-17.567 1257.87 2843.42v-.012z" fill-rule="nonzero"/><path d="m13469.6 4844.49-2419.29-2794.34-2584.79 2075.52 5004.08 718.821h-.004zm78.854 43.437-5159.12-742.083 2653.3-2129.79 11.288-9.479 2494.53 2881.35h.012z" fill-rule="nonzero"/><path d="m17912.5 1745.37-3658.63-1677.71-724.1 4764.83 4382.75-3087.14-.021.013zm62.933-5.329-4458.58 3138.14-28.609 22.413 737.846-4858.08 3.179-20.158 3746.16 1717.71.004-.02z" fill-rule="nonzero"/><path d="m16095.9 5930.71-2556.68-1035.33 1214.69 2746.67 1342-1711.34zm50.8-13.23-1399.57 1784.95-1268.82-2866.08z" fill-rule="nonzero"/><path d="m16113 5903.74 1794.6-4116.11-4366.71 3074.91 2572.12 1041.2h-.008zm22.379 26.579-6.579 13.471-2625.28-1063.45-27.604-9.775 4459.25-3140.18 45.92-32.605-1845.71 4232.54.004-.004zm-13018.999 8969.281c-1.666-167.466-138.991-302.1-307.171-300.45-167.55 1.667-302.187 139.009-300.521 306.492 1.651 167.554 138.996 302.188 306.546 300.504 168.163-1.65 302.813-139.012 301.146-306.546m7859.12-2693.5c-1.65-166.183-139.671-301.495-307.154-299.846-167.55 1.684-302.187 139.705-300.537 305.884 1.666 168.837 138.991 302.866 306.546 301.2 167.483-1.667 302.829-138.388 301.145-307.238m-6915.97-3423.68c-1.316-132.692-110.241-238.788-243.541-237.467-132.709 1.321-239.496 109.567-238.192 242.258 1.338 133.313 110.258 239.48 242.95 238.159 133.317-1.338 240.104-109.638 238.783-242.95m4821.76 3677.68c-.938-93.858-77.434-169.462-171.913-168.525-93.108.937-168.712 78.054-167.796 171.908.938 93.8 78.059 168.717 171.167 167.779 94.458-.92 169.479-77.379 168.542-171.162m12086.61 672.5c-1.317-133.313-110.275-240.104-243.609-238.767-132.675 1.305-239.462 110.246-238.141 243.542 1.316 133.387 110.258 239.479 242.916 238.163 133.35-1.321 240.154-109.55 238.834-242.938m-14341.02-4939.98c-1.667-168.158-139.688-302.171-307.171-300.504-167.554 1.667-302.883 138.387-301.216 306.562 1.666 167.467 139.687 302.846 307.241 301.179 167.479-1.666 302.792-139.77 301.146-307.237m771.87-3053.23c-1.108-111.892-92.496-200.763-203.712-199.671-111.217 1.112-200.763 91.792-199.655 203.683 1.113 111.234 92.43 200.104 203.646 199.009 111.217-1.109 200.817-91.788 199.721-203.021" fill-rule="nonzero"/><path d="m13689.3 4898.59c-1.108-111.892-92.5-201.459-203.037-200.346-112.517 1.108-202.117 92.462-201.008 204.358 1.095 110.554 92.483 200.121 205.02 198.992 110.521-1.096 200.121-92.45 199.025-203.004m2617 1038.07c-1.095-111.234-91.791-200.78-203.004-199.671-111.912 1.096-200.8 92.45-199.687 203.666 1.108 111.909 91.787 200.779 203.679 199.667 111.217-1.092 200.121-91.771 199.012-203.663m7539.3 1883.051c-1.095-111.283-92.45-200.121-203.004-199.029-111.891 1.113-201.458 91.754-200.346 203.038 1.109 112.521 92.463 201.441 204.338 200.333 110.558-1.096 200.121-91.825 199.012-204.342m-1752.3 5273.59c-1.109-111.892-92.463-201.438-203.021-200.329-111.909 1.112-201.459 92.433-200.346 204.341 1.092 110.538 92.446 200.138 204.342 199.008 110.554-1.091 200.104-92.479 199.025-203.02m-1323.9-3697.13c-1.092-111.217-92.463-200.817-203.679-199.704-111.233 1.108-200.8 92.5-199.688 203.712 1.096 111.217 92.467 200.75 203.679 199.638 111.217-1.096 200.784-92.43 199.688-203.646m-3673 3707.33c-1.096-111.216-92.45-200.12-202.988-199.029-111.908 1.129-201.475 91.825-200.367 203.042 1.096 111.908 92.45 201.437 204.359 200.329 110.541-1.112 200.087-92.45 198.996-204.342m-580.3-538.4c-.625-64.291-54.758-117.346-119.758-116.704-65.675.663-116.738 54.775-116.092 119.063.642 65.641 52.758 117.412 118.417 116.754 65-.642 118.091-53.454 117.433-119.113m-4.2 587.1c-.659-66.354-54.113-118.734-119.775-118.071-65 .641-117.413 54.062-116.75 120.417.641 64.287 54.096 116.716 119.079 116.075 65.675-.642 118.071-54.15 117.446-118.421m4050.9-2490.2c-1.109-111.892-91.788-201.438-203.021-200.329-111.909 1.112-200.796 92.433-199.671 204.325 1.096 111.925 91.792 201.458 203.683 200.346 111.213-1.113 200.104-92.446 199.009-204.342m-11910.68-6508.05c-1.112-111.891-92.429-201.441-203.662-200.346-111.909 1.13-200.817 92.484-199.705 204.359 1.109 111.233 91.805 200.779 203.713 199.671 111.217-1.096 200.75-92.45 199.654-203.684m26.63 6402.45c-2.121-214.408-177.362-386.179-391.167-384.063-213.712 2.121-385.521 177.363-383.4 391.771 2.134 213.717 177.359 384.896 391.092 382.763 213.787-2.121 385.592-176.738 383.475-390.471m6403.65-2825.11c-2.121-213.734-177.379-384.896-391.113-382.763-213.733 2.121-384.912 176.738-382.796 390.454 2.117 213.713 176.738 385.521 390.471 383.384 213.75-2.117 385.554-177.363 383.438-391.075m8108.4-4985.04c-2.116-213.733-177.395-386.213-391.108-384.096-213.75 2.133-385.558 178.071-383.437 391.804 2.116 213.734 177.379 385.538 391.108 383.421 213.75-2.117 385.558-177.379 383.437-391.129" fill-rule="nonzero"/></g></svg>