<svg clip-rule="evenodd" fill-rule="evenodd" stroke-linejoin="round" stroke-miterlimit="2" viewBox="0 0 114 97" xmlns="http://www.w3.org/2000/svg"><g fill="#fff" fill-rule="nonzero"><path d="m21.595 67.785c-4.95-.005-9.025 4.058-9.045 9.012-.017 4.933 4.075 9.021 9.029 9.033 4.937.009 9.037-4.083 9.041-9.016 0-4.95-4.075-9.025-9.025-9.029m-21.345 6.945c.425-1.708.716-3.466 1.304-5.12 3.229-9.017 12.096-14.805 21.441-14.08 9.721.746 17.613 7.663 19.521 17.096 2.379 11.8-5.758 22.763-17.791 24.071-5.759.633-11.109-.354-15.921-3.637-4.696-3.2-7.45-7.667-8.325-13.288-.046-.279-.15-.554-.229-.829v-4.213z"/><path d="m78.488 5.122v25.475h20.125c0-.342.025-.625-.004-.909-.429-4.962-.871-9.925-1.312-14.887-.2-2.242-.413-4.484-.634-6.725-.216-2.275-.887-2.9-3.146-2.938-1.4-.025-2.804-.012-4.204-.012-3.579-.004-7.154-.004-10.825-.004m-4.071 25.491v-25.483c-4.945 0-9.812-.017-14.679.008-3.062.017-4.058.775-4.737 3.825-1.154 5.217-2.225 10.454-3.329 15.684-.413 1.962-.817 3.929-1.238 5.966zm-23.837 42.709c-1.475 0-2.8.05-4.121-.038-.271-.021-.683-.492-.746-.812-1.379-7.034-5.091-12.488-11.087-16.396-9.096-5.925-21.892-4.713-29.704 2.804-.367.35-.738.7-1.18 1.117-1.345-2.338-1.97-4.78-2.279-7.305-.712-5.754-.216-11.366 2.35-16.641 1.717-3.521 4.342-5.742 8.559-5.404.95.079 1.92.012 2.879.012h1.141v-1.262c.005-3.73-.02-7.463.025-11.188.017-1.675 1.292-2.967 2.888-3.104 1.637-.146 3.108.871 3.475 2.45.096.425.092.879.092 1.321.008 3.475.004 6.946.004 10.416v1.28h22.55c.521-2.455 1.05-4.967 1.583-7.48 1.104-5.191 2.142-10.404 3.329-15.579 1.134-4.908 4.154-7.254 9.175-7.262 11.304-.017 22.609-.017 33.913 0 4.791.008 7.608 2.425 8.066 7.175.984 10.254 1.85 20.521 2.738 30.779.179 2.071-.996 3.321-2.75 3.058-.354-.054-.708-.208-1.029-.379-6.204-3.283-12.829-4.583-19.796-4.033-14.379 1.133-26.692 10.679-29.7 25.187a30.913 30.913 0 0 0 -.446 10.025c.042.363.042.729.071 1.259"/><path d="m83.607 55.671c-7.042-.004-12.833 5.767-12.858 12.804-.021 7.075 5.825 12.913 12.891 12.884 7.038-.029 12.805-5.825 12.796-12.867-.012-7.037-5.791-12.817-12.829-12.821m-30.154 12.75c.087-12.291 7.771-22.896 19.437-26.721 9.367-3.066 18.392-2.279 27.021 2.575 9.725 5.467 15.246 17.409 13.529 28.446-2.016 12.971-12.383 22.013-24.766 23.784-7.317 1.045-14.259-.017-20.779-3.567-8.988-4.888-14.513-14.263-14.442-24.517"/></g></svg>