<svg clip-rule="evenodd" fill-rule="evenodd" stroke-linejoin="round" stroke-miterlimit="2" viewBox="0 0 135 135" xmlns="http://www.w3.org/2000/svg"><g fill="#fff" fill-rule="nonzero"><path d="m95.588.288c2.238 5.459 4.479 10.917 6.713 16.375.179.438.337.879.541 1.413-31.687 13.125-63.275 26.208-95.012 39.358-.208-.45-.417-.858-.592-1.279-2.083-5.008-4.158-10.017-6.241-15.021-.167-.396-.392-.762-.588-1.146v-.262c.4-.179.796-.367 1.196-.534 25.6-10.604 51.2-21.204 76.8-31.816 5.646-2.342 11.279-4.725 16.921-7.088zm31.58 63.701v-21.629h7.754v92.479h-7.729v-32.688h-25.896c3.125-6.625 3.167-13.091.033-19.721h25.73v-10.212c-16.725-.725-27.288-9.142-31.792-25.367-5.958 2.467-11.963 4.954-18.108 7.496 2.25 5.454 4.479 10.846 6.783 16.425-7.313-.296-13.333 2.192-18.2 7.588l-6.829-16.455c-11.592 4.8-23.125 9.575-34.784 14.4-2.004-4.829-3.991-9.62-6.045-14.583 29.287-12.133 58.475-24.221 87.816-36.371 2.029 4.892 4.013 9.679 6.042 14.567-2.604 1.083-5.117 2.2-7.688 3.171-1.066.4-1.291.85-1.108 1.991 1.8 11.096 12.467 19.75 23.608 19.067.084-.004.159-.058.413-.158"/><path d="m95.812 92.047c.054 7.633-6.117 13.866-13.704 13.854-7.317-.013-13.567-6.225-13.558-13.475.004-7.633 6.004-13.692 13.641-13.775 7.271-.079 13.571 6.121 13.621 13.396"/></g></svg>