<svg clip-rule="evenodd" fill-rule="evenodd" stroke-linejoin="round" stroke-miterlimit="2" viewBox="0 0 118 109" xmlns="http://www.w3.org/2000/svg"><path d="m66.064 43.592v-14.146h-14.2v14.225h-14.142v14.221h14.175v14.117h14.213v-14.154h14.108v-14.263zm51.583-10.837v4.583c-.062.296-.154.587-.179.887-.471 6.234-2.475 11.996-5.45 17.438-4.038 7.4-9.408 13.804-15.254 19.808-10.613 10.9-22.104 20.842-33.579 30.809-2.988 2.591-5.442 2.6-8.43-.03-9.22-8.129-18.462-16.241-27.612-24.445-6.408-5.742-12.421-11.871-17.45-18.896-5.521-7.717-8.913-16.196-9.304-25.767-.421-10.367 2.704-19.458 10.125-26.792 10.841-10.708 27.654-13.029 41.087-5.829 2.575 1.379 4.984 3.071 7.575 4.692.229-.175.617-.471 1.013-.763 12.141-8.937 25.146-10.804 38.837-4.141 8.896 4.329 14.584 11.629 17.25 21.166.663 2.371.921 4.85 1.371 7.28" fill="#fff" fill-rule="nonzero"/></svg>