<svg clip-rule="evenodd" fill-rule="evenodd" stroke-linejoin="round" stroke-miterlimit="2" viewBox="0 0 116 111" xmlns="http://www.w3.org/2000/svg"><path d="m115.841 25.098c-.6 2.816-1.225 5.629-1.792 8.45-2.208 11.029-4.371 22.062-6.612 33.083-1.48 7.279-7.205 11.879-14.692 11.883-17.454.013-34.913-.116-52.367.063-7.629.079-14.133-5.325-15.146-13.363-1.333-10.6-3.054-21.15-4.604-31.725-1.012-6.904-2.025-13.804-3.021-20.708-.262-1.808-.558-2.104-2.35-2.104-3.229-.004-6.458.041-9.687-.025-2.533-.05-4.5-1.792-4.988-4.242-.441-2.221.771-4.6 2.888-5.579.5-.233 1.071-.454 1.608-.458 4.054-.021 8.125-.234 12.15.083 5.704.446 9.679 4.508 10.513 10.167.358 2.408.783 4.816 1.062 7.233.109.925.442 1.142 1.325 1.142 14.829-.03 29.654-.021 44.484-.021 11.525 0 23.05.054 34.57-.034 3.217-.02 5.542.967 6.659 4.13zm-27.767 58.235c7.454.2 13.533 6.504 13.308 13.796-.233 7.541-6.429 13.346-14.012 13.121-7.23-.213-13.175-6.53-12.934-13.75.242-7.438 6.379-13.363 13.638-13.167m-33.201 13.326c.067 7.217-5.825 13.334-12.95 13.454-7.192.125-13.25-5.812-13.304-13.033-.059-7.446 5.916-13.733 13.058-13.746 7.196-.012 13.129 5.979 13.196 13.325" fill="#fff" fill-rule="nonzero"/></svg>