<svg clip-rule="evenodd" fill-rule="evenodd" stroke-linejoin="round" stroke-miterlimit="2" viewBox="0 0 116 116" xmlns="http://www.w3.org/2000/svg"><path d="m84.577 104.588-4.225 3.92h4.225zm-9.492-61.5c1.48-1.388 2.784-2.609 4.23-3.963h-4.23zm8.192-30.771v6.058h9.967c-3.454-2.1-6.65-4.037-9.967-6.058m-6.675 69.146c2.654 2.462 5.233 4.858 7.954 7.383v-14.763c-2.737 2.542-5.304 4.921-7.954 7.38m7.904-23.184v-14.675c-2.712 2.521-5.266 4.892-7.9 7.338a8301.03 8301.03 0 0 0 7.9 7.337m-9.416 45.842c2.733-2.546 5.32-4.946 7.954-7.396l-7.954-7.387zm7.962-37.917c-2.675-2.483-5.258-4.875-7.929-7.354v14.713c2.696-2.505 5.254-4.875 7.929-7.359m13.921 42.329c0-4.004-.042-7.912.021-11.825.021-1.266-.238-2.287-1.134-3.254-1.3-1.408-2.454-2.95-3.654-4.446-.179-.225-.25-.529-.371-.795-.112.104-.225.204-.337.304v20.016zm-28.813.013v-20.383c-1.758 2.141-3.37 4.054-4.908 6.029a2.871 2.871 0 0 0 -.571 1.608c-.05 3.904-.029 7.817-.025 11.721 0 .329.046.654.067 1.025zm8.209-98-33.275 7.717c.008.037.021.07.029.108h33.246zm-76.342 7.892c3.913.008 7.838.166 11.742-.046 2.15-.113 4.271-.829 6.391-1.321 19.08-4.421 38.159-8.858 57.238-13.288.325-.079.646-.17 1.008-.27v-3.288h6.8c0 1.1-.054 2.217.029 3.325.03.4.296.938.625 1.133a3669.405 3669.405 0 0 0 22.175 13.492c.355.217.85.267 1.284.271 2.746.021 5.491.012 8.325.012v20.592h-24.209v1.483c0 11.863.009 23.725-.012 35.588 0 .833.2 1.483.746 2.146 3.6 4.35 7.141 8.746 10.746 13.096.612.741.866 1.483.858 2.437-.029 6.742-.013 13.479-.013 20.225v1.288h-47.895v-1.155c0-6.887-.017-13.783.029-20.67.004-.613.262-1.33.641-1.809 3.68-4.575 7.417-9.104 11.105-13.679.32-.4.566-.992.566-1.496.029-12.162.025-24.325.021-36.487 0-.263-.033-.517-.054-.867h-49.888v7.746h4.471v16.458h-4.546v7.134h-6.77v-7.08h-4.996v-16.454h4.871v-7.95h-11.288z" fill="#fff" fill-rule="nonzero"/></svg>