<svg clip-rule="evenodd" fill-rule="evenodd" stroke-linejoin="round" stroke-miterlimit="2" viewBox="0 0 133 111" xmlns="http://www.w3.org/2000/svg"><g fill="#fff" fill-rule="nonzero"><path d="m.019 24.98c.65-1.712 1.962-2.554 3.65-3.15 20.208-7.091 40.4-14.225 60.583-21.375 1.421-.504 2.746-.504 4.154-.008 20.271 7.171 40.546 14.317 60.821 21.475 2.888 1.021 4.083 3.204 3.063 5.529-.613 1.392-1.834 1.967-3.171 2.442-9.138 3.233-18.271 6.487-27.404 9.733-11.084 3.938-22.175 7.859-33.246 11.829-1.463.521-2.8.521-4.267 0a20823.983 20823.983 0 0 0 -61.017-21.691c-1.554-.546-2.554-1.513-3.166-2.971z"/><path d="m27.393 46.603c6.221 2.208 12.229 4.342 18.229 6.475 5.438 1.937 10.883 3.85 16.308 5.821 3.063 1.112 6.055.991 9.1-.096 10.905-3.917 21.83-7.779 32.746-11.658.438-.159.879-.296 1.467-.496.033.533.083.937.083 1.35.004 4.962-.041 9.925.021 14.887.033 2.575-.979 4.588-2.887 6.217-2.913 2.496-6.392 3.908-9.975 5.037-11.05 3.484-22.384 4.38-33.888 3.488-7.208-.558-14.304-1.767-21.033-4.479-2.567-1.034-5.004-2.496-7.3-4.059-2.109-1.429-3.004-3.65-2.967-6.275.075-4.916.021-9.841.025-14.758 0-.417.038-.833.071-1.454m88.139-3.638c2.566-.912 5.066-1.804 7.771-2.762v1.483c0 10.4.008 20.809-.017 31.213-.004.8.217 1.291.875 1.812 4.129 3.238 4.042 9.142-.083 12.413-.413.329-.738 1.037-.742 1.571-.054 5.916-.021 11.825-.042 17.741-.012 2.771-2.221 4.609-4.775 4.025-1.804-.408-2.979-1.962-2.983-4.016-.013-5.825-.021-11.655.012-17.48.009-.895-.208-1.466-.958-2.045-3.954-3.067-3.979-8.996-.029-12.113.783-.621.987-1.229.983-2.15-.021-9.412-.012-18.821-.012-28.229z"/></g></svg>