<svg clip-rule="evenodd" fill-rule="evenodd" stroke-linejoin="round" stroke-miterlimit="2" viewBox="0 0 120 120" xmlns="http://www.w3.org/2000/svg"><g fill="#fff" fill-rule="nonzero"><path d="m84.121 90.877v1.996c0 .7-.016 1.396.004 2.096.063 1.987 1.559 3.5 3.459 3.516 1.904.017 3.441-1.479 3.516-3.458.038-1.004.067-2.021-.008-3.021-.067-.829.263-1.183.992-1.537 3.591-1.763 5.662-4.704 5.958-8.675.3-3.984-1.325-7.175-4.612-9.467-1.763-1.233-3.767-1.737-5.917-1.808-1.488-.042-2.567-.825-3.133-2.213-.53-1.304-.288-2.537.645-3.571 1-1.108 2.296-1.516 3.696-.966.913.362 1.788.916 2.563 1.533 1.725 1.379 3.758 1.388 5.108-.083 1.379-1.504 1.258-3.725-.492-5.138-1.433-1.15-3.066-2.054-4.791-3.183 0-1.025.021-2.346-.004-3.658-.034-2.138-1.55-3.692-3.546-3.659-1.95.034-3.404 1.571-3.434 3.659-.016 1.312-.004 2.629-.004 3.908-6.187 2.646-8.746 9.071-5.804 14.671 1.95 3.708 5.142 5.562 9.329 5.716 1.492.055 2.592.784 3.175 2.155.575 1.341.325 2.608-.65 3.67-1.012 1.109-2.35 1.542-3.7.905-1.187-.571-2.304-1.4-3.271-2.309-1.62-1.525-3.595-1.779-5.091-.45-1.55 1.375-1.584 3.475-.092 5.175a14.801 14.801 0 0 0 6.104 4.196m35.171-14.283c-.383 1.933-.65 3.904-1.179 5.796-3.954 14.145-17.188 23.658-32.008 23.062-14.325-.579-26.609-11.267-29.392-25.579-3.488-17.913 9.479-35.308 27.658-37.096 16.975-1.667 31.984 9.988 34.617 26.867.096.612.204 1.216.304 1.829z"/><path d="m57.105.431c1.334 1.042 2.709 2.034 3.996 3.134a8661.242 8661.242 0 0 1 21.492 18.4c1.421 1.22 1.854 2.637 1.296 4.129-.554 1.496-1.804 2.279-3.679 2.283-3.217.013-6.438.008-9.663.013-.075 0-.146.029-.4.075v1.887c0 2.833-.021 5.667.013 8.5.012.696-.188 1.079-.821 1.45-13.584 7.942-20.663 19.779-20.025 35.521.571 14.175 7.658 24.762 19.904 31.871.708.416.967.816.946 1.616-.046 2.292.012 4.58-.029 6.871-.034 1.988-1.488 3.484-3.471 3.488-8.029.025-16.067.004-24.1 0-.071 0-.142-.042-.338-.092v-91.196h-6.6c-1.2 0-2.404.009-3.608-.004-1.763-.012-3.017-.825-3.563-2.283-.55-1.463-.137-2.875 1.221-4.046 5.946-5.104 11.9-10.204 17.85-15.304 1.946-1.671 3.879-3.35 5.842-4.996.583-.488 1.246-.883 1.875-1.317h1.862z"/><path d="m35.151 119.637h-13.913v-1.275c0-21.542-.004-43.083 0-64.625 0-2.821 1.317-4.154 4.104-4.158 3.25-.004 6.5 0 9.809 0zm-21.218.037c-3.592 0-7.117.058-10.642-.021-1.925-.046-3.237-1.629-3.246-3.7-.012-4.071-.004-8.146-.004-12.217v-22.112c.004-2.738 1.338-4.092 4.046-4.096 3.254-.004 6.508 0 9.846 0z"/></g></svg>