<svg clip-rule="evenodd" fill-rule="evenodd" stroke-linejoin="round" stroke-miterlimit="2" viewBox="0 0 109 109" xmlns="http://www.w3.org/2000/svg"><path d="m84.967 79.717c0-2.004.008-4.013 0-6.017-.017-2.167-1.221-3.45-3.383-3.471a543.722 543.722 0 0 0 -12.25 0c-2.163.021-3.375 1.304-3.379 3.471a1857.87 1857.87 0 0 0 0 12.038c.004 2.162 1.216 3.445 3.379 3.47 4.083.042 8.166.042 12.25 0 2.166-.025 3.366-1.308 3.383-3.475.008-2.004 0-4.012 0-6.016m-55.15 0c0 2.004-.012 4.016.004 6.021.017 2.162 1.217 3.445 3.379 3.47 4.084.042 8.171.042 12.255 0 2.162-.025 3.37-1.308 3.375-3.475.016-4.012.016-8.02 0-12.037-.005-2.163-1.217-3.446-3.38-3.467a543.722 543.722 0 0 0 -12.25 0c-2.162.021-3.362 1.304-3.379 3.471-.016 2.004-.004 4.013-.004 6.017m-29.583 26.304v-88.954h35.95v31.596c.45-.242.787-.409 1.112-.6 9.9-5.784 19.796-11.58 29.7-17.363 2.838-1.654 5.288-.254 5.292 3.013.004 4.579.004 9.154.004 13.733v1.275c2.054-1.2 3.929-2.288 5.808-3.383 8.321-4.867 16.646-9.725 24.955-14.605 1.233-.725 2.454-1.104 3.775-.325 1.308.771 1.604 2.005 1.604 3.438-.017 23.417-.013 46.833-.013 70.254 0 3.217-1.021 4.25-4.2 4.25-33.241 0-66.483-.012-99.725.029-1.966 0-3.416-.525-4.262-2.358m33.598-105.861c1.825.841 2.45 2.291 2.346 4.254-.105 2.062-.021 4.133-.021 6.312h-35.921v-8.237c.775-.779 1.55-1.55 2.325-2.329z" fill="#fff" fill-rule="nonzero"/></svg>