<svg clip-rule="evenodd" fill-rule="evenodd" stroke-linejoin="round" stroke-miterlimit="2" viewBox="0 0 138 138" xmlns="http://www.w3.org/2000/svg"><path d="m98.631 19.138c.012-2.346-1.892-4.28-4.213-4.28-2.27.005-4.162 1.871-4.204 4.15-.041 2.355 1.817 4.305 4.142 4.35 2.312.042 4.262-1.879 4.275-4.22m-48.821 3.991c2.988 0 5.979.009 8.967-.004 2.562-.012 4.412-1.725 4.396-4.037-.017-2.317-1.859-3.992-4.442-3.996-5.933-.009-11.863-.009-17.796 0-2.575.008-4.387 1.7-4.371 4.041.013 2.342 1.813 3.984 4.417 3.992 2.942.013 5.887.004 8.829.004m56.804-22.779c.367.138.725.296 1.096.413 3.854 1.208 6.617 4.42 6.713 8.445.154 6.605.191 13.217-.013 19.817-.154 5.004-4.325 8.771-9.35 8.829-4.733.05-9.467.013-14.196.013-19.241 0-38.483.004-57.721-.004-4.87 0-8.679-2.88-9.72-7.384-.23-.991-.263-2.037-.271-3.058-.025-5.492-.017-10.979-.009-16.471.005-5.654 2.292-8.737 7.713-10.425.075-.025.129-.117.192-.175h75.566zm-106.382 116.033c1.07-2.317 2.904-3.021 5.395-2.988 8.255.104 16.513.038 24.771.038 3.129.004 4.671 1.55 4.671 4.691.008 4.959.008 9.913 0 14.867-.004 2.958-1.592 4.558-4.537 4.558-8.3.009-16.6-.062-24.905.042-2.491.029-4.325-.675-5.395-2.988v-18.22zm98.399-57.125c-.021-2.338-1.975-4.254-4.288-4.204-2.329.05-4.175 2-4.129 4.358.046 2.275 1.95 4.15 4.217 4.142 2.317-.004 4.217-1.95 4.2-4.296m-48.808-3.975c-2.942 0-5.888-.008-8.83.004-2.608.008-4.408 1.638-4.429 3.979-.025 2.342 1.788 4.05 4.359 4.054 5.975.013 11.954.017 17.929 0 2.479-.008 4.296-1.712 4.321-3.979.025-2.316-1.825-4.041-4.384-4.054-2.987-.012-5.979-.004-8.966-.004m-28.105 50.079h-8.004c-.029-.379-.079-.762-.079-1.142-.004-3.57-.012-7.145 0-10.716.013-2.842 1.642-4.45 4.517-4.454 14.958-.005 29.921 0 44.879 0h1.687v-13.667h-1.437c-9.958 0-19.917.004-29.875 0-6.229-.004-10.225-3.963-10.258-10.188-.03-5.716-.038-11.433.02-17.145.013-1.442.334-2.88.5-4.205 2.396.675 4.513 1.338 6.659 1.85.941.225 1.954.2 2.933.205 23.708.008 47.421 0 71.133.012 2.955.004 5.763-.546 8.413-1.854.271-.138.562-.229 1.125-.454.208 1.475.55 2.816.562 4.166.059 5.892.071 11.788.013 17.684-.058 5.979-4.113 9.921-10.104 9.925-9.959.012-19.917.004-29.875.004h-1.571v13.667h46.275c3.296 0 4.796 1.516 4.8 4.845.004 3.784 0 7.571 0 11.425h-7.979v-8.145h-43.163v8.12h-8.058v-8.141h-43.113zm98.436 8.073c4.241 0 8.479-.005 12.716 0 2.955.004 4.555 1.595 4.559 4.541.008 4.996.008 9.992 0 14.992-.004 2.958-1.592 4.579-4.517 4.583-8.608.004-17.221.004-25.833 0-2.867-.004-4.479-1.616-4.484-4.475a3814.53 3814.53 0 0 1 -.004-15.129c.009-2.933 1.609-4.508 4.579-4.512 4.33-.005 8.655 0 12.984 0m-51.18 0c4.283 0 8.566-.009 12.85 0 2.779.008 4.416 1.637 4.425 4.404.008 5.129.012 10.262 0 15.391-.013 2.671-1.675 4.313-4.375 4.317-8.7.013-17.4.013-26.1 0-2.692-.004-4.35-1.658-4.359-4.333-.012-5.129-.012-10.263 0-15.392.009-2.754 1.655-4.379 4.442-4.387 4.371-.009 8.742 0 13.117 0" fill="#fff" fill-rule="nonzero"/></svg>