<svg clip-rule="evenodd" fill-rule="evenodd" stroke-linejoin="round" stroke-miterlimit="2" viewBox="0 0 121 127" xmlns="http://www.w3.org/2000/svg"><g fill="#fff"><path d="m67.521 43.112h-4.334v4.313h4.334zm-4.317-15.925h4.275v-4.375h-4.275zm9.004 20.25h17.775v-4.379h-17.775zm17.817-24.562h-17.821v4.329h17.821zm-.05 29.229h-26.796v4.379h26.796zm-26.825-15.887h26.858v-4.342h-26.858zm-11.308 6.816c-1.455 0-2.909-.033-4.359.009-1.5.041-2.358.879-2.379 2.379a341.901 341.901 0 0 0 0 8.712c.021 1.5.879 2.363 2.371 2.384 2.904.037 5.817.037 8.721 0 1.491-.017 2.358-.884 2.379-2.375.037-2.909.037-5.813 0-8.721-.021-1.496-.883-2.338-2.375-2.379-1.454-.042-2.904-.009-4.358-.009m.012-20.25c-1.454 0-2.904-.033-4.358.009-1.504.041-2.371.87-2.392 2.362a320.631 320.631 0 0 0 0 8.717c.017 1.5.871 2.371 2.358 2.391 2.905.042 5.813.042 8.717.005 1.5-.021 2.371-.875 2.396-2.363.042-2.904.037-5.812 0-8.717-.021-1.554-.904-2.366-2.5-2.4-1.408-.029-2.813-.008-4.221-.004m42.679 52.163v26.508h-13.337c-.034-.304-.1-.658-.104-1.012-.009-2.159-.005-4.313-.005-6.467 0-3.192-.491-3.692-3.62-3.692h-36.78v-71.916h53.83v42.42c-3.588 1.084-7.205 2.184-10.834 3.267-8.916 2.667-17.841 5.313-26.754 8a5.28 5.28 0 0 0 -1.917 1.088c-2.229 2.008-4.383 4.091-6.583 6.133-.771.708-1.321 1.5-1 2.592.329 1.125 1.196 1.541 2.317 1.72 2.912.467 5.804 1.084 8.716 1.505.93.133 1.963-.021 2.88-.292 10.675-3.154 21.337-6.363 32.004-9.546.354-.108.716-.187 1.187-.308m-67.341 10.766h4.316v-4.375h-4.316zm-27.005-26.862h8.9c0 3.429-.004 6.792 0 10.154 0 2.654.634 3.275 3.334 3.279 3.891 0 7.779.004 11.671-.004 2.275 0 2.991-.737 2.991-3.05.009-3.417.004-6.833.004-10.35h8.917v31.333h-35.817zm31.288 58.508h-4.3v4.375h4.3zm-31.288-22.504h8.9c0 3.425-.004 6.788 0 10.146 0 2.662.634 3.279 3.33 3.279 3.891.004 7.779.008 11.67 0 2.28-.004 2.996-.733 2.996-3.046.009-3.416.004-6.837.004-10.35h8.917v31.334h-35.817z" fill-rule="nonzero"/><path d="m67.642 121.675h4.379v-4.308h-4.379zm-26.942-26.833h8.887v9.845c.005 3.067.525 3.592 3.58 3.592 3.841.004 7.687.008 11.529 0 2.116-.004 2.883-.767 2.891-2.871.009-3.466 0-6.933 0-10.512h8.909v31.308h-35.796zm44.983-85.56c4.583 0 9.033-.037 13.483.017 2.517.029 4.367 1.971 4.413 4.529.041 2.342.012 4.687.012 7.029 0 11.95-.016 23.904.029 35.858.005 1.096-.312 1.596-1.375 1.796-1.004.192-1.97.554-3.154.896v-42.375c0-2.596-.646-3.25-3.216-3.254h-10.192zm-36.153-.004v4.5h-9.988c-2.883 0-3.454.571-3.454 3.437v37h-4.5v-1.491c0-12.746-.004-25.492 0-38.242 0-3.437 1.754-5.2 5.175-5.2 4.209-.008 8.421-.004 12.767-.004m31.657 96.757c4.983 0 9.85 0 14.716-.004 2.5 0 3.188-.675 3.188-3.138v-29.362c1.462-.429 2.912-.863 4.5-1.334v33.013c0 3.633-1.692 5.321-5.329 5.321-5.663.004-11.321 0-17.075 0zm-7.247-29.745c-.442-1.475-.838-2.808-1.271-4.245l12.288-3.692c10.52-3.154 21.045-6.304 31.57-9.454.446-.134.896-.292 1.35-.388 1.35-.271 2.48.321 2.83 1.45.37 1.225-.234 2.4-1.609 2.846-2.491.804-5.008 1.525-7.516 2.279a79893.411 79893.411 0 0 1 -36.138 10.821c-.442.129-.896.229-1.504.383m-12.439-75.968h12.158c-.458 1.904-.904 3.738-1.342 5.575-.541 2.267.334 3.367 2.696 3.379 1.963.009 3.925 0 5.984 0v4.425h-26.842v-4.425c1.992 0 3.983.009 5.979 0 2.433-.012 3.279-1.104 2.7-3.487-.425-1.767-.862-3.534-1.333-5.467" fill-rule="nonzero"/><path d="m13.7 58.879h8.825v8.825h-8.825zm-.05 35.979h8.825v8.825h-8.825zm40.525-.05h8.8v8.875h-8.8z"/><path d="m68.333 73.34 1.3 4.284c-2.513.762-5.025 1.337-7.388 2.275-2.583 1.029-5.012.504-7.75-.125 1.875-1.613 3.2-3.513 5.713-4.067 2.683-.587 5.292-1.525 8.125-2.367" fill-rule="nonzero"/><path d="m49.683 27.362h4.333v4.313h-4.333zm.017 20.263h4.275v4.379h-4.275z"/></g></svg>