<svg clip-rule="evenodd" fill-rule="evenodd" stroke-linejoin="round" stroke-miterlimit="2" viewBox="0 0 124 124" xmlns="http://www.w3.org/2000/svg"><g fill="#fff"><path d="m20.279 62.292h-7.071v19.204h7.071zm-7.046 49.129h7.042v-19.271h-7.042zm-13.075-59.779c.517.033 1.034.095 1.55.095 10.013.005 20.025.005 30.038.005h1.5v71.25c-.246.037-.509.1-.771.1-10.575.004-21.15.004-31.721 0-.2 0-.396-.034-.596-.055zm110.013 10.62h-7.042v19.221h7.042zm-.004 29.896h-7.055v19.275h7.055zm13.008 30.875h-33.021v-71.212h33.021zm-91.857-78.61c0-.825-.104-1.637.046-2.396.075-.375.571-.795.975-.958 8.333-3.379 16.741-6.583 24.987-10.158 3.104-1.346 5.667-1.354 8.771-.004 8.021 3.495 16.192 6.645 24.338 9.845 1.287.505 1.904 1.113 1.65 2.492-.059.346-.005.713-.005 1.179z" fill-rule="nonzero"/><path d="m40.575 111.337h42.2v11.675h-42.2zm.033-59.512h9.183v52.171h-9.183zm33.009.025h9.192v52.146h-9.192zm-16.45-.021h9.058v52.179h-9.058z"/><path d="m65.294 15.566v7.462c-2.412-1.671-4.733-1.725-7.129.009v-22.596h24.858v15.125z" fill-rule="nonzero"/></g></svg>