<svg clip-rule="evenodd" fill-rule="evenodd" stroke-linejoin="round" stroke-miterlimit="2" viewBox="0 0 3621 709" xmlns="http://www.w3.org/2000/svg"><g fill-rule="nonzero"><path fill="currentColor" d="m428.958 575.71c0 36.425-12.829 67.454-38.45 93.079-25.645 25.642-56.658 38.446-93.079 38.446h-266.087c-20.234 0-30.354-10.117-30.354-30.35v-116.354c0-20.229 10.12-30.35 30.354-30.35h200.321c13.487 0 20.237-6.733 20.237-20.233v-47.55c0-12.805-6.75-19.225-20.237-19.225h-99.146c-36.425 0-67.454-12.8-93.079-38.442-25.642-25.625-38.45-56.658-38.45-93.083v-177.055c0-35.741 12.808-66.6 38.45-92.57 25.625-25.959 56.654-38.955 93.079-38.955h266.087c20.229 0 30.354 10.121 30.354 30.355v116.35c0 20.233-10.125 30.35-30.354 30.35h-200.325c-13.504 0-20.237 6.75-20.237 20.237v46.533c0 11.484 5.721 17.884 17.204 19.225h102.183c36.421 0 67.434 12.825 93.079 38.45 25.621 25.642 38.45 56.655 38.45 93.08z"/><path fill="currentColor" d="m728.421 278.259v-77.9c0-13.487-6.745-20.237-20.237-20.237h-33.383c-13.5 0-20.238 6.75-20.238 20.237v77.9c0 13.5 6.738 20.238 20.238 20.238h33.383c13.492 0 20.237-6.738 20.237-20.238m177.046 65.767c0 35.758-12.821 66.612-38.433 92.575-25.65 25.967-56.663 38.95-93.083 38.95h-99.15c-13.5 0-20.238 6.75-20.238 20.237v181.096c0 20.234-10.108 30.354-30.346 30.354h-116.358c-20.238 0-30.346-10.12-30.346-30.354v-643.462c0-20.234 10.108-30.35 30.346-30.35h266.092c36.42 0 67.433 12.991 93.083 38.95 25.612 25.975 38.433 56.829 38.433 92.575z"/><path fill="currentColor" d="m1351.63 676.886c0 20.229-10.108 30.35-30.346 30.35h-235.733c-36.425 0-67.458-12.804-93.079-38.446-25.65-25.625-38.45-56.654-38.45-93.079v-441.117c0-35.746 12.8-66.6 38.45-92.575 25.621-25.954 56.654-38.95 93.079-38.95h235.733c20.238 0 30.346 10.117 30.346 30.35v116.354c0 20.234-10.108 30.35-30.346 30.35h-169.979c-13.487 0-20.237 6.75-20.237 20.238v50.579c0 13.504 6.75 20.238 20.237 20.238h169.979c20.238 0 30.346 10.12 30.346 30.354v116.35c0 20.233-10.108 30.35-30.346 30.35h-169.979c-13.487 0-20.237 6.75-20.237 20.237v41.479c0 13.5 6.75 20.234 20.237 20.234h169.979c20.238 0 30.346 10.121 30.346 30.35z"/><path fill="currentColor" d="m1727.99 676.886c0 20.229-10.108 30.35-30.346 30.35h-165.925c-36.425 0-67.458-12.804-93.083-38.446-25.638-25.625-38.45-56.654-38.45-93.079v-441.117c0-35.746 12.812-66.6 38.45-92.575 25.625-25.954 56.658-38.95 93.083-38.95h165.925c20.238 0 30.346 10.117 30.346 30.35v116.354c0 20.234-10.108 30.35-30.346 30.35h-100.158c-13.504 0-20.242 6.75-20.242 20.238v309.587c0 13.5 6.738 20.234 20.242 20.234h100.158c20.238 0 30.346 10.121 30.346 30.35z"/><path d="m2197.44 149.772c0 20.233-10.121 30.35-30.354 30.35h-71.834c-13.504 0-20.229 6.75-20.229 20.238v476.525c0 20.233-10.129 30.354-30.362 30.354h-116.338c-20.237 0-30.354-10.134-30.354-30.417v-476.433c0-13.5-6.758-20.267-20.237-20.267h-70.821c-20.238 0-30.354-10.117-30.354-30.35v-116.35c0-20.233 10.116-30.35 30.354-30.35h360.175c20.233 0 30.354 10.117 30.354 30.35z" fill="#e7a900"/><path d="m2665.86 149.772c0 20.233-10.108 30.35-30.346 30.35h-71.829c-13.516 0-20.241 6.75-20.241 20.238v476.525c0 20.233-10.117 30.354-30.355 30.354h-116.345c-20.238 0-30.346-10.134-30.346-30.417v-476.433c0-13.5-6.754-20.267-20.238-20.267h-70.821c-20.233 0-30.366-10.117-30.366-30.35v-116.35c0-20.233 10.133-30.35 30.366-30.35h360.175c20.238 0 30.346 10.117 30.346 30.35z" fill="#e7a900"/><path fill="currentColor" d="m2964.33 277.252v-76.892c0-13.487-6.758-20.237-20.237-20.237h-33.383c-13.5 0-20.242 6.75-20.242 20.237v76.892c0 13.5 6.742 20.229 20.242 20.229h33.383c13.479 0 20.237-6.729 20.237-20.229m177.055 399.633c0 20.234-10.125 30.35-30.355 30.35h-116.345c-20.238 0-30.355-10.116-30.355-30.35v-193.241c0-13.484-6.758-20.234-20.237-20.234h-33.383c-13.5 0-20.242 6.75-20.242 20.234v193.241c0 20.234-10.113 30.35-30.354 30.35h-116.338c-20.233 0-30.366-10.116-30.366-30.35v-643.466c0-20.229 10.133-30.35 30.366-30.35h266.084c36.42 0 67.433 12.996 93.079 38.95 25.625 25.975 38.446 56.833 38.446 92.575v144.679c0 20.912-7.434 38.796-22.263 53.621-14.846 14.846-32.721 22.262-53.621 22.262 20.9 0 38.775 7.429 53.621 22.259 14.829 14.841 22.263 32.72 22.263 53.62z"/><path fill="currentColor" d="m3440.84 389.457v-189.004c0-13.546-6.742-20.329-20.233-20.329h-33.384c-13.5 0-20.241 6.783-20.241 20.329v189.004c0 13.563 6.741 20.333 20.241 20.333h33.384c13.491 0 20.233-6.77 20.233-20.333m177.05 287.429c0 20.229-10.113 30.35-30.346 30.35h-116.358c-20.225 0-30.346-10.121-30.346-30.35v-126.466c0-13.488-6.742-20.238-20.233-20.238h-33.384c-13.5 0-20.241 6.75-20.241 20.238v126.466c0 20.229-10.105 30.35-30.346 30.35h-116.359c-20.233 0-30.341-10.121-30.341-30.35v-542.291c0-35.746 12.8-66.6 38.45-92.575 25.621-25.955 56.646-38.95 93.071-38.95h164.912c36.425 0 67.438 12.995 93.083 38.95 25.617 25.975 38.438 56.829 38.438 92.575z"/></g></svg>