<svg xmlns="http://www.w3.org/2000/svg" xml:space="preserve" fill-rule="evenodd" stroke-linejoin="round" stroke-miterlimit="2" clip-rule="evenodd" viewBox="0 0 219 237"><path fill="none" d="M.01.7h218.34v235.88H.01z"/><g fill-rule="nonzero"><path d="m191.71 55.22-66.39-38.33a31.29 31.29 0 0 0-31.28 0L27.65 55.22a31.29 31.29 0 0 0-15.64 27.1v76.65a31.3 31.3 0 0 0 15.64 27.1l66.39 38.32a31.29 31.29 0 0 0 31.28 0l66.39-38.32a31.29 31.29 0 0 0 15.64-27.1V82.31c0-11.17-5.96-21.5-15.64-27.1"/><path fill="#e8aa00" d="M58.49 141.02h42.38l-37.36-29.08a18.8 18.8 0 0 1-3.71-25.83L69 73.35a26.28 26.28 0 0 1 21.32-10.92h48.18a22.22 22.22 0 0 1 22.23 22.22v15.62H117.6l37.98 28.48a18.8 18.8 0 0 1 3.68 26.43l-10.12 13.3a26.28 26.28 0 0 1-20.92 10.38H80.71a22.22 22.22 0 0 1-22.22-22.22v-15.62Z"/><path fill="#a08500" d="m79.99 64.59-.54.24 38.16 35.44h14.01L80 64.59Zm58.84 111.99-37.96-35.56H89.9l48.51 35.74.42-.18"/></g></svg>