<svg clip-rule="evenodd" fill-rule="evenodd" stroke-linejoin="round" stroke-miterlimit="2" viewBox="0 0 1240 1240" xmlns="http://www.w3.org/2000/svg"><g fill-rule="nonzero"><path fill="currentColor" d="m861.404 434.182-194.95-112.553c-28.385-16.382-63.466-16.382-91.851 0l-194.95 112.553c-28.389 16.398-45.931 46.793-45.926 79.578v225.078c.001 32.782 17.541 63.175 45.926 79.577l194.95 112.524c28.385 16.382 63.466 16.382 91.851 0l194.95-112.524c28.39-16.397 45.932-46.793 45.926-79.577V513.73c0-32.8-17.501-63.133-45.926-79.577"/><path d="M470.212 686.129h124.447l-109.706-85.392c-23.301-18.125-28.152-51.898-10.894-75.848l27.015-37.469a77.229 77.229 0 0 1 62.605-32.066h141.507c35.794 0 65.248 29.454 65.248 65.248v45.867H643.785l111.526 83.629a55.243 55.243 0 0 1 22.088 44.169 55.213 55.213 0 0 1-11.282 33.441L736.4 766.763a77.219 77.219 0 0 1-61.43 30.48H535.46c-35.794 0-65.248-29.454-65.248-65.247z" fill="#e8aa00"/><path d="m533.346 461.697-1.586.704 112.055 104.068h41.139L533.375 461.697zm172.78 328.851L594.659 686.129h-32.213l142.446 104.948z" fill="#a08500"/></g></svg>