<?xml version="1.0" standalone="no"?>
<!DOCTYPE svg PUBLIC "-//W3C//DTD SVG 20010904//EN"
 "http://www.w3.org/TR/2001/REC-SVG-20010904/DTD/svg10.dtd">
<svg version="1.0" xmlns="http://www.w3.org/2000/svg"
 width="16.000000pt" height="16.000000pt" viewBox="0 0 16.000000 16.000000"
 preserveAspectRatio="xMidYMid meet">
<metadata>
Created by potrace 1.11, written by Peter Selinger 2001-2013
</metadata>
<g transform="translate(0.000000,16.000000) scale(0.001563,-0.001563)"
fill="#000000" stroke="none">
<path d="M5332 7753 c-4 -1 -74 -4 -157 -7 -164 -6 -317 -20 -465 -42 -19 -3
-48 -7 -65 -9 -28 -3 -131 -19 -200 -31 -183 -30 -768 -182 -820 -213 -5 -3
-15 -6 -20 -7 -15 -2 -341 -132 -405 -161 -30 -14 -73 -32 -95 -41 -72 -28
-277 -137 -402 -213 -248 -150 -552 -378 -733 -549 -15 -14 -71 -65 -126 -115
-116 -106 -356 -344 -580 -575 -88 -91 -171 -174 -184 -186 -55 -45 -110 -118
-130 -170 -29 -78 -29 -240 0 -344 42 -149 158 -358 279 -499 54 -65 163 -173
246 -246 70 -61 280 -215 294 -215 5 0 11 -4 13 -8 13 -33 414 -240 738 -382
230 -101 761 -262 967 -294 21 -4 45 -8 53 -11 8 -2 33 -6 55 -10 50 -7 154
-24 180 -29 38 -7 157 -22 275 -35 209 -23 953 -20 1210 4 134 13 235 24 280
30 666 99 1183 254 1705 512 204 100 294 152 500 292 221 148 476 350 667 528
105 99 619 611 678 678 34 38 34 49 0 15 -3 -3 -27 -23 -55 -44 -27 -22 -81
-70 -120 -107 -38 -38 -106 -103 -151 -146 -337 -327 -470 -442 -749 -655
-326 -248 -710 -468 -1069 -613 -149 -60 -484 -174 -656 -224 -58 -17 -141
-42 -185 -55 -44 -13 -98 -27 -120 -30 -22 -4 -47 -8 -55 -11 -8 -2 -28 -7
-45 -10 -16 -2 -55 -9 -85 -15 -30 -5 -73 -12 -95 -15 -22 -4 -47 -8 -55 -10
-28 -8 -254 -34 -340 -40 -47 -4 -96 -8 -110 -11 -14 -2 -118 -7 -231 -11
-145 -4 -208 -3 -213 5 -10 16 21 29 94 37 36 4 72 9 80 10 55 10 109 18 130
20 14 2 57 8 95 15 39 7 80 14 92 15 12 2 35 6 52 10 16 3 42 8 58 10 15 2 73
13 129 24 55 12 109 23 120 25 34 7 67 15 139 32 39 9 80 18 91 20 52 10 383
107 519 154 83 28 242 87 355 131 113 45 230 91 260 102 71 26 314 152 455
235 151 89 458 297 508 345 37 35 38 36 7 13 -144 -106 -529 -321 -720 -401
-36 -15 -83 -35 -105 -45 -62 -28 -276 -111 -314 -122 -129 -36 -93 -9 137
106 260 130 385 196 379 202 -4 4 -87 -19 -192 -52 -27 -9 -146 -54 -264 -100
-118 -47 -257 -100 -310 -118 -127 -44 -541 -146 -811 -200 -58 -11 -137 -26
-170 -31 -19 -3 -46 -7 -60 -10 -14 -3 -41 -7 -60 -9 -19 -3 -69 -10 -110 -16
-365 -57 -382 -58 -705 -55 -170 2 -321 5 -335 8 -14 3 -54 8 -89 12 -36 3
-67 8 -70 10 -4 2 -27 6 -51 10 -142 20 -197 30 -340 61 -125 28 -500 123
-512 131 -5 2 -16 6 -25 8 -56 11 -272 95 -355 137 -195 99 -328 225 -496 468
-21 30 -65 73 -112 108 -109 83 -158 133 -177 185 -16 43 -32 62 -95 112 -88
70 -105 94 -114 160 -3 28 -10 61 -16 74 -12 33 -99 112 -118 109 -8 -2 -26
-20 -39 -41 -21 -32 -26 -35 -34 -21 -5 9 -12 49 -14 88 -3 39 -9 75 -14 80
-6 6 -21 -2 -41 -21 -26 -25 -37 -30 -51 -22 -28 16 -52 2 -116 -67 -69 -75
-88 -71 -32 7 76 107 83 139 24 124 -17 -4 -31 -1 -43 10 -15 14 -20 13 -51
-15 -54 -48 -51 -55 -58 128 -1 32 -3 33 -39 32 -20 -1 -41 -1 -47 -1 -5 1 27
36 71 79 45 42 160 154 256 247 457 446 786 707 1221 967 498 298 959 473
1577 597 107 22 215 43 240 46 25 4 54 9 65 11 11 2 108 16 215 29 107 14 206
28 220 30 59 11 365 17 355 7 -5 -6 -28 -13 -50 -16 -70 -11 -299 -48 -320
-52 -38 -7 -130 -24 -160 -29 -104 -18 -403 -91 -575 -141 -47 -14 -93 -27
-102 -29 -50 -11 -267 -82 -368 -120 -215 -81 -275 -103 -362 -129 -96 -29
-446 -202 -628 -311 -169 -100 -335 -213 -508 -344 -84 -64 -163 -122 -175
-130 -12 -7 -30 -24 -40 -37 -32 -43 4 -27 103 47 111 82 353 244 425 284 28
16 84 47 125 70 119 66 287 148 387 188 118 48 256 97 260 93 6 -6 -33 -34
-97 -68 -97 -53 -298 -153 -357 -178 -61 -26 -74 -56 -20 -45 99 21 476 158
584 213 89 45 327 123 450 146 11 2 49 11 86 20 37 9 97 23 134 32 37 9 74 17
82 19 9 2 95 19 191 39 96 19 191 38 210 41 19 3 42 8 50 10 8 2 29 6 45 9 17
3 84 14 150 26 66 11 143 23 170 26 28 4 53 8 56 10 3 1 59 6 125 11 215 14
700 7 804 -12 14 -3 45 -7 70 -10 25 -3 97 -14 160 -25 162 -28 173 -30 192
-36 10 -3 30 -7 45 -10 16 -3 66 -14 113 -25 47 -12 95 -23 106 -25 47 -9 375
-105 456 -133 234 -83 406 -196 552 -362 32 -37 70 -87 85 -111 50 -84 95
-134 180 -198 109 -84 148 -126 163 -174 13 -42 59 -96 123 -142 70 -51 79
-64 89 -134 11 -69 25 -98 77 -152 l47 -49 37 32 c45 40 54 32 61 -52 3 -35 9
-68 13 -72 5 -4 23 4 40 19 24 20 35 24 44 15 16 -16 35 -14 64 9 36 28 44 25
31 -10 -13 -39 -5 -60 25 -60 14 0 30 -7 37 -15 18 -22 31 -19 69 16 19 17 37
27 42 22 5 -5 11 -44 14 -87 3 -43 8 -82 11 -87 10 -16 67 -4 121 25 101 55
173 141 193 231 17 76 15 220 -5 300 -34 138 -177 397 -291 527 -92 105 -250
251 -355 330 -210 157 -409 272 -694 403 -44 20 -102 47 -130 60 -67 31 -267
115 -290 121 -5 1 -37 12 -70 24 -33 12 -67 23 -75 25 -8 2 -35 10 -60 18
-137 45 -564 146 -688 162 -15 1 -43 6 -62 10 -55 10 -72 13 -125 20 -27 3
-63 8 -80 11 -16 2 -61 6 -100 9 -38 3 -94 10 -123 14 -29 4 -162 9 -295 11
-470 4 -547 5 -555 3z"/>
<path d="M2171 6029 c-172 -34 -274 -188 -236 -359 22 -101 126 -197 285 -263
84 -35 129 -75 137 -120 7 -44 -8 -71 -57 -102 -32 -20 -40 -31 -40 -55 0 -40
18 -46 88 -30 100 21 178 79 224 165 25 46 33 183 14 225 -12 28 0 27 -296 30
-127 1 -148 4 -169 21 -13 11 -21 23 -17 27 4 4 100 8 213 9 113 1 208 5 212
8 3 4 -3 13 -13 21 -15 10 -55 14 -155 15 -214 1 -322 6 -331 15 -5 5 -10 16
-12 24 -2 11 17 15 112 16 69 2 116 7 118 13 3 10 85 7 120 -4 6 -3 12 0 12 6
0 5 -30 23 -66 39 -89 40 -124 67 -140 107 -12 29 -12 37 0 62 8 15 26 36 40
45 31 19 43 60 26 81 -7 8 -15 15 -19 14 -3 -1 -26 -5 -50 -10z"/>
<path d="M4682 6028 c-72 -11 -126 -40 -189 -104 -93 -93 -134 -224 -128 -409
4 -138 22 -197 84 -282 52 -71 157 -130 252 -140 36 -4 47 -2 52 11 9 23 -3
76 -18 76 -49 0 -61 87 -59 462 1 256 3 265 61 311 26 20 29 45 11 68 -11 13
-23 14 -66 7z"/>
<path d="M2295 6019 c-15 -24 7 -58 58 -89 57 -34 100 -89 119 -153 17 -57 67
-86 87 -49 10 20 15 260 5 285 -8 22 -16 21 -64 -2 -37 -18 -40 -18 -92 0 -60
21 -104 24 -113 8z"/>
<path d="M3028 6025 c-2 -2 -72 -5 -156 -6 -155 -3 -179 -9 -167 -41 3 -8 19
-25 35 -37 l30 -22 0 -342 c0 -188 -3 -351 -6 -362 -3 -11 -18 -28 -35 -37
-33 -19 -36 -30 -13 -52 22 -23 415 -24 434 -1 18 22 4 50 -33 63 -33 12 -34
13 -37 80 -1 37 -2 219 -2 404 1 252 -2 339 -11 345 -14 9 -34 13 -39 8z"/>
<path d="M4807 6009 c-8 -32 2 -48 44 -70 35 -17 111 -100 121 -131 4 -11 96
-14 107 -2 7 7 11 146 5 187 -5 31 -10 37 -29 37 -13 0 -36 -11 -52 -24 -23
-19 -33 -22 -47 -14 -20 11 -113 38 -132 38 -7 0 -14 -9 -17 -21z"/>
<path d="M5165 6017 c-2 -7 -6 -54 -8 -104 -3 -78 -1 -95 13 -108 36 -32 74
-16 100 42 11 25 31 58 45 74 15 19 23 39 21 52 -3 12 -5 28 -5 36 -1 10 -12
12 -47 8 -25 -2 -61 -1 -80 3 -24 6 -36 5 -39 -3z"/>
<path d="M5770 6020 c-38 -8 -38 -50 -1 -108 34 -54 47 -85 55 -134 8 -50 15
-65 35 -71 30 -8 58 10 63 40 5 36 3 262 -3 267 -7 7 -122 12 -149 6z"/>
<path d="M5974 6018 c-7 -11 -12 -202 -6 -256 3 -33 10 -46 27 -54 38 -17 60
3 74 69 16 68 34 108 67 144 21 22 23 31 16 65 l-8 39 -82 1 c-46 1 -85 -3
-88 -8z"/>
<path d="M6203 6017 c-3 -5 -5 -190 -5 -411 l0 -403 -35 -17 c-39 -18 -51 -40
-33 -61 10 -12 49 -15 225 -15 190 0 214 2 228 18 19 21 12 34 -30 56 -18 9
-33 22 -34 29 0 6 -2 21 -5 32 -2 11 -4 187 -5 390 0 204 -3 375 -7 380 -9 12
-292 13 -299 2z"/>
<path d="M8046 6017 c-33 -25 -26 -78 46 -346 21 -79 38 -151 38 -160 0 -9 7
-29 15 -45 21 -41 9 -50 -76 -54 -63 -4 -71 -7 -79 -28 -5 -13 -7 -31 -4 -39
6 -15 16 -17 117 -17 64 0 67 -3 81 -81 6 -32 3 -40 -19 -61 -37 -35 -31 -68
15 -78 57 -12 381 -2 390 12 12 19 0 48 -26 65 -21 14 -38 55 -51 125 -2 13
-13 49 -24 80 -11 30 -22 66 -25 80 -2 14 -14 61 -25 105 -12 44 -23 91 -25
105 -12 74 -68 316 -75 324 -4 5 -59 10 -121 13 -62 2 -118 6 -125 8 -6 2 -18
-2 -27 -8z"/>
<path d="M3129 6006 c0 -6 -2 -18 -4 -28 -2 -9 13 -29 35 -46 41 -34 36 -6 45
-260 1 -46 4 -85 7 -87 2 -2 25 -5 51 -6 27 -2 50 -6 52 -9 5 -8 -106 -40
-150 -43 -23 -2 -31 -8 -33 -25 -3 -20 1 -22 50 -23 95 -2 130 2 172 21 99 43
147 134 140 269 -3 74 -16 108 -60 160 -22 27 -85 68 -104 69 -3 0 -21 3 -40
7 -70 12 -160 13 -161 1z"/>
<path d="M3608 6012 c-49 -6 -41 -44 18 -78 18 -11 19 -27 18 -370 -1 -331 -2
-359 -19 -369 -48 -28 -60 -43 -49 -62 10 -16 30 -18 191 -21 l181 -2 -3 412
c-2 227 -4 431 -4 454 l-1 41 -152 -1 c-84 -1 -165 -2 -180 -4z"/>
<path d="M4010 6008 c-13 -5 -18 -14 -15 -29 6 -30 24 -47 57 -53 14 -2 35 -9
46 -15 28 -15 79 -75 102 -122 16 -31 26 -40 43 -37 27 4 35 38 36 168 l1 97
-125 -1 c-70 -1 -135 -4 -145 -8z"/>
<path d="M5408 6012 c-13 -3 -17 -19 -20 -75 -2 -40 -1 -88 2 -107 4 -29 9
-34 33 -35 15 -1 31 -5 35 -9 4 -4 8 -110 10 -234 1 -125 3 -245 3 -267 2 -64
-8 -80 -58 -96 -50 -16 -70 -37 -60 -63 6 -14 30 -16 206 -16 185 0 201 1 210
19 13 23 -3 46 -41 60 -16 6 -28 18 -29 28 -6 97 -7 183 -9 466 l-2 327 -21 1
c-56 3 -245 4 -259 1z"/>
<path d="M6557 6013 c-16 -16 -5 -64 22 -95 37 -43 46 -62 61 -128 16 -68 25
-80 61 -80 34 0 31 -12 33 177 l1 133 -86 0 c-47 0 -89 -3 -92 -7z"/>
<path d="M6824 6008 c-11 -17 6 -57 26 -63 11 -3 23 -18 27 -33 9 -32 10 -412
2 -590 -5 -105 -8 -124 -25 -137 -10 -8 -22 -15 -26 -15 -13 0 -9 -28 6 -43
12 -12 52 -14 213 -13 109 1 204 5 211 9 24 16 13 47 -22 64 -22 10 -36 25
-39 41 -3 14 -5 174 -6 356 0 182 -1 355 -1 384 l0 53 -180 -2 c-100 -1 -183
-6 -186 -11z"/>
<path d="M7239 5992 c-9 -22 -5 -30 27 -63 l36 -37 5 -126 c5 -104 3 -129 -10
-149 -9 -14 -13 -27 -10 -31 4 -3 32 -6 62 -6 47 0 58 -4 70 -22 13 -21 13
-21 -55 -15 -38 4 -79 9 -91 13 -40 11 -39 -22 1 -66 l36 -40 0 -110 c0 -151
22 -195 115 -234 46 -19 137 -12 193 15 72 36 120 126 76 143 -20 7 -54 -10
-54 -28 0 -16 -28 -41 -36 -33 -4 3 -3 14 1 24 12 29 4 171 -11 195 -3 4 -54
8 -115 8 -100 0 -109 2 -109 19 0 27 90 42 163 27 53 -11 47 7 -10 34 -77 36
-79 48 -17 90 25 18 58 50 75 72 25 36 29 49 29 110 0 84 -17 126 -72 172 -47
41 -98 56 -206 60 -82 4 -84 3 -93 -22z"/>
<path d="M7979 5803 c-6 -16 -15 -53 -20 -83 -6 -30 -21 -93 -35 -140 -28 -98
-29 -110 -9 -110 8 0 15 -9 15 -20 0 -14 -7 -20 -24 -20 -25 0 -36 -18 -56
-100 -19 -74 -39 -106 -86 -140 -33 -23 -44 -38 -42 -54 3 -20 9 -21 128 -24
69 -1 131 2 139 7 20 13 5 48 -30 68 -41 25 -45 52 -21 151 12 48 24 101 26
118 3 16 21 82 41 146 25 82 33 125 28 148 l-6 33 -17 -23 c-17 -22 -17 -22
-10 24 8 51 -5 62 -21 19z"/>
<path d="M4130 5737 c0 -20 -16 -23 -23 -4 -3 7 -9 2 -15 -13 -12 -31 -3 -49
13 -27 7 10 15 17 18 17 9 0 1 -42 -13 -72 -11 -23 -16 -25 -37 -17 -13 5 -28
9 -33 9 -19 0 -40 -34 -40 -65 0 -28 6 -37 30 -50 20 -10 39 -34 56 -69 20
-43 29 -53 45 -49 10 3 22 16 25 29 10 41 -2 304 -14 316 -9 9 -12 8 -12 -5z"/>
<path d="M1941 5431 c-11 -7 -14 -40 -14 -154 -1 -179 10 -200 83 -162 25 13
33 13 72 -1 24 -8 62 -17 86 -20 l42 -4 0 39 c0 34 -4 40 -30 51 -48 20 -122
110 -149 182 -30 78 -51 94 -90 69z"/>
<path d="M4197 5333 c-14 -27 -36 -60 -49 -74 -24 -27 -88 -74 -88 -65 0 3
-13 0 -29 -5 -32 -11 -45 -40 -27 -64 9 -13 33 -15 146 -13 l135 3 0 130 0
130 -31 3 c-27 3 -33 -2 -57 -45z"/>
<path d="M5003 5252 c-18 -2 -58 -19 -90 -38 -31 -19 -65 -34 -75 -34 -23 0
-41 -36 -33 -67 5 -22 9 -24 45 -19 68 9 146 60 185 120 21 32 12 43 -32 38z"/>
<path d="M935 2993 c-6 -2 -10 -76 -9 -195 l1 -193 37 -3 36 -3 -2 197 -3 198
-25 1 c-14 1 -30 0 -35 -2z"/>
<path d="M4015 2991 c-3 -2 -5 -41 -5 -85 -1 -71 -2 -79 -14 -63 -19 25 -64
18 -87 -13 -36 -50 -28 -191 13 -222 23 -17 51 -16 73 2 9 8 15 8 20 0 3 -5
22 -10 41 -10 l34 0 0 198 0 198 -35 0 c-20 0 -38 -2 -40 -5z m-7 -269 c3 -56
1 -62 -16 -62 -24 0 -32 18 -32 74 0 47 6 58 30 54 11 -2 16 -19 18 -66z"/>
<path d="M8020 2798 l0 -198 38 0 38 0 -2 188 c-1 103 -2 192 -3 197 0 6 -17
11 -36 11 l-35 0 0 -198z"/>
<path d="M494 2966 c-44 -19 -69 -76 -54 -121 6 -19 16 -37 21 -41 6 -3 28
-28 50 -56 31 -40 37 -53 28 -64 -15 -18 -37 -18 -73 1 -15 8 -30 15 -32 15
-2 0 -4 -18 -4 -40 0 -36 3 -41 37 -55 65 -27 131 3 153 70 15 45 0 79 -63
142 -47 49 -50 54 -35 69 15 15 19 15 49 0 17 -9 34 -16 36 -16 1 0 3 20 3 45
0 42 -1 44 -37 54 -46 13 -41 13 -79 -3z"/>
<path d="M5565 2966 c-35 -15 -50 -32 -58 -65 -9 -37 2 -76 32 -108 72 -79 82
-95 70 -109 -15 -18 -37 -18 -73 1 -15 8 -30 15 -32 15 -2 0 -4 -18 -4 -40 0
-36 3 -41 36 -55 60 -25 124 -1 148 56 21 49 8 86 -50 149 -30 32 -54 60 -54
63 0 4 9 11 21 17 16 9 26 8 44 -4 14 -9 26 -16 29 -16 2 0 4 20 3 45 -1 43
-3 46 -37 55 -42 12 -38 12 -75 -4z"/>
<path d="M8800 2938 l-31 -43 32 -3 c23 -3 35 2 47 19 l15 22 18 -22 c13 -16
27 -21 48 -19 l30 3 -28 40 c-22 32 -33 40 -63 42 -32 3 -39 -1 -68 -39z"/>
<path d="M9297 2962 c-22 -24 -21 -35 2 -56 22 -20 54 -10 65 20 8 21 8 20
-10 38 -20 21 -37 20 -57 -2z"/>
<path d="M1510 2942 c-24 -30 -25 -41 -3 -49 10 -4 21 0 27 9 8 14 15 14 63 0
49 -14 55 -14 72 2 11 10 21 26 24 37 7 26 -22 38 -38 16 -14 -20 -24 -21 -62
-5 -45 19 -62 17 -83 -10z"/>
<path d="M2345 2785 l0 -186 40 3 40 3 1 183 2 182 -42 0 -41 0 0 -185z"/>
<path d="M7780 2785 l0 -185 96 0 95 0 -3 38 c-3 35 -5 37 -38 39 -19 1 -43 2
-52 2 -14 1 -18 10 -18 36 0 35 0 35 46 35 38 0 45 3 40 16 -3 9 -6 26 -6 39
0 19 -5 22 -29 20 -40 -3 -53 7 -48 41 3 27 6 29 50 29 l47 -1 0 38 0 38 -90
0 -90 0 0 -185z"/>
<path d="M2790 2894 c0 -27 -4 -34 -20 -34 -21 0 -22 -1 -24 -40 -1 -19 5 -26
22 -28 21 -3 22 -7 22 -98 l0 -95 37 3 37 3 0 93 c-1 83 1 92 17 92 28 0 26
56 -2 71 -16 8 -20 18 -17 39 4 26 2 28 -34 28 -37 1 -38 0 -38 -34z"/>
<path d="M8432 2913 c-5 -10 -8 -26 -7 -35 2 -10 -6 -19 -21 -22 -19 -5 -24
-13 -24 -36 0 -25 4 -30 24 -30 24 0 25 -2 24 -82 0 -46 0 -89 1 -95 1 -8 15
-13 36 -13 l35 0 0 94 c0 85 2 94 20 99 14 3 20 14 20 32 0 18 -6 29 -20 32
-15 4 -20 14 -20 39 0 31 -3 34 -30 34 -18 0 -33 -7 -38 -17z"/>
<path d="M7290 2863 c-63 -18 -85 -57 -84 -146 1 -42 6 -65 22 -86 18 -25 19
-31 7 -41 -18 -15 -10 -32 13 -29 33 3 42 -1 42 -21 0 -13 -7 -20 -20 -21 -11
-1 -29 -3 -40 -4 -11 -1 -24 -3 -30 -4 -24 -3 -8 -31 18 -32 100 -4 153 34
123 89 -8 14 -8 29 -1 47 12 33 6 45 -25 45 -27 0 -35 17 -35 75 0 45 19 71
44 62 19 -7 29 19 16 43 -11 21 -29 29 -50 23z"/>
<path d="M9484 2855 c-32 -13 -57 -39 -61 -64 -17 -93 -2 -156 41 -182 47 -29
96 -15 96 27 0 20 -5 24 -30 24 -26 0 -30 4 -36 36 -9 51 6 99 33 99 30 1 37
10 29 38 -7 30 -34 38 -72 22z"/>
<path d="M712 2842 c-48 -37 -61 -142 -24 -204 16 -27 28 -35 72 -43 84 -16
141 112 93 212 -25 53 -95 70 -141 35z m79 -69 c2 -40 2 -86 0 -100 -2 -22
-38 -14 -45 10 -15 56 0 117 29 117 9 0 15 -10 16 -27z"/>
<path d="M1063 2844 c-3 -7 -3 -54 -1 -103 3 -77 7 -94 27 -115 29 -31 64 -40
106 -26 53 18 66 47 67 155 1 52 -1 98 -5 101 -10 10 -68 -7 -66 -19 1 -7 1
-49 0 -94 -1 -82 -1 -83 -26 -83 -24 0 -25 2 -26 73 -1 39 -2 77 -4 82 -1 6
-3 17 -3 25 -2 20 -61 23 -69 4z"/>
<path d="M1352 2838 c-45 -50 -50 -157 -8 -213 13 -18 13 -22 -1 -37 -9 -10
-12 -18 -7 -19 88 -7 100 -50 14 -54 -46 -2 -59 -10 -42 -27 14 -14 86 -12
121 5 29 14 40 59 20 83 -9 11 -9 18 -1 26 7 7 12 22 12 35 0 19 -5 23 -30 23
-26 0 -30 4 -36 36 -3 19 -2 50 3 67 7 26 14 32 36 32 28 -1 34 15 21 49 -10
25 -76 21 -102 -6z"/>
<path d="M1550 2847 c-45 -37 -64 -103 -48 -167 19 -72 80 -104 142 -75 41 20
56 51 56 116 0 62 -25 117 -57 130 -33 12 -75 11 -93 -4z m67 -59 c15 -24 12
-116 -4 -130 -26 -21 -45 17 -40 82 3 30 6 56 6 58 3 7 31 0 38 -10z"/>
<path d="M1792 2835 c-44 -37 -56 -106 -31 -182 22 -69 135 -81 169 -17 15 27
10 37 -25 41 -17 3 -25 -1 -25 -12 0 -25 -47 -19 -53 7 -9 33 -1 38 62 38 l58
0 -2 33 c-2 17 -3 37 -4 44 0 6 -13 25 -27 42 -33 40 -80 42 -122 6z m85 -57
c3 -25 1 -28 -27 -28 -30 0 -37 11 -24 45 11 27 47 14 51 -17z"/>
<path d="M2015 2835 c-40 -39 -33 -71 27 -126 42 -38 49 -49 36 -54 -9 -4 -26
-1 -38 5 -18 10 -24 8 -35 -6 -16 -23 -10 -38 18 -51 51 -24 116 3 131 54 11
35 -8 63 -83 120 -26 19 0 38 28 21 19 -11 24 -11 37 6 19 27 18 31 -11 44
-42 19 -83 14 -110 -13z"/>
<path d="M2601 2841 c-16 -16 -20 -17 -25 -5 -3 8 -19 14 -41 14 l-35 0 -1
-47 c0 -27 -1 -83 -3 -125 l-2 -78 41 0 41 0 1 78 c1 42 2 83 2 90 1 8 10 12
24 10 21 -3 22 -8 23 -88 l1 -85 37 -3 37 -3 -3 116 c-2 104 -4 118 -22 131
-28 19 -52 18 -75 -5z"/>
<path d="M2992 2844 c-30 -21 -43 -47 -48 -100 -13 -114 69 -185 153 -133 43
27 47 70 7 67 -15 -2 -29 -8 -31 -15 -8 -21 -43 -15 -52 10 -13 33 -6 37 60
37 59 0 59 0 59 29 0 93 -82 152 -148 105z m77 -56 c11 -30 6 -38 -30 -38 -31
0 -32 2 -23 38 4 13 14 22 25 22 11 0 23 -10 28 -22z"/>
<path d="M3217 2842 c-22 -24 -39 -108 -32 -154 7 -39 44 -88 68 -88 7 0 22 7
33 15 28 21 30 19 26 -20 -5 -40 -38 -58 -57 -31 -15 20 -65 22 -65 2 0 -28
13 -47 41 -61 65 -34 133 -3 148 67 5 21 10 94 10 163 2 114 0 125 -16 125
-10 0 -29 -6 -43 -13 -22 -11 -28 -11 -38 0 -18 18 -56 16 -75 -5z m94 -109
c-3 -59 -19 -83 -38 -57 -20 27 -17 101 5 113 26 15 36 -3 33 -56z"/>
<path d="M3547 2840 c-22 -18 -27 -19 -27 -6 0 12 -10 16 -35 16 l-35 0 -1
-77 c0 -43 -2 -99 -3 -125 l-2 -48 38 0 38 0 1 58 c1 119 7 131 55 132 17 0
21 6 20 32 -2 39 -15 44 -49 18z"/>
<path d="M3661 2841 c-25 -25 -35 -76 -29 -147 7 -83 61 -125 107 -83 17 16
21 17 21 4 0 -11 10 -15 35 -15 l35 0 0 131 0 132 -32 -7 c-18 -4 -34 -11 -36
-16 -2 -6 -13 -3 -25 5 -29 20 -53 19 -76 -4z m93 -74 c15 -56 3 -107 -24
-107 -24 0 -38 79 -22 116 13 28 37 23 46 -9z"/>
<path d="M4184 2852 c-38 -25 -55 -146 -29 -208 7 -18 24 -38 37 -45 12 -7 23
-13 23 -13 1 -1 12 7 27 16 17 11 29 13 35 7 6 -6 23 -9 39 -7 l29 3 0 125 0
125 -35 -3 c-19 -1 -36 -7 -38 -12 -2 -6 -13 -3 -25 5 -23 16 -46 19 -63 7z
m84 -125 c2 -46 0 -58 -14 -64 -23 -9 -42 19 -39 59 2 18 3 41 4 51 1 13 8 17
24 15 19 -3 22 -10 25 -61z"/>
<path d="M4420 2836 c-36 -40 -30 -74 24 -121 64 -57 61 -78 -6 -50 -24 10
-46 -32 -26 -51 19 -19 69 -26 100 -13 30 12 58 62 50 91 -2 10 -27 38 -54 60
-29 25 -45 45 -39 51 5 5 17 4 31 -3 28 -15 50 -6 50 20 0 43 -93 54 -130 16z"/>
<path d="M4788 2843 c-34 -21 -51 -62 -51 -118 0 -81 32 -124 99 -131 25 -2
40 4 64 26 18 17 30 35 28 41 -7 21 -44 19 -69 -2 -22 -19 -24 -19 -36 -3 -7
10 -13 26 -13 36 0 15 9 18 60 18 l60 0 0 44 c0 35 -6 50 -29 75 -33 36 -71
40 -113 14z m74 -63 c2 -21 -2 -26 -24 -28 -24 -3 -28 0 -28 22 0 25 29 51 42
38 3 -4 8 -18 10 -32z"/>
<path d="M5013 2853 c-15 -3 -23 -12 -24 -26 0 -12 -2 -68 -4 -124 l-4 -103
39 0 c44 0 40 -12 43 115 2 54 4 60 25 63 24 4 26 -4 23 -120 l-1 -58 43 0 42
0 0 81 c-1 89 4 103 31 97 17 -3 19 -13 19 -91 l0 -87 42 0 42 0 -4 73 c-1 39
-3 89 -4 110 -1 42 -29 77 -61 77 -12 0 -33 -12 -47 -27 -17 -16 -29 -21 -31
-14 -13 40 -62 53 -93 25 -17 -15 -19 -15 -34 0 -9 9 -17 15 -18 15 -1 -1 -12
-4 -24 -6z"/>
<path d="M5788 2843 c-15 -10 -33 -30 -39 -46 -12 -28 -15 -96 -7 -127 20 -76
117 -102 166 -45 12 15 21 32 19 39 -6 16 -57 9 -71 -10 -11 -15 -14 -15 -29
1 -9 9 -17 25 -17 36 0 17 7 19 60 19 l60 0 0 35 c0 93 -71 141 -142 98z m76
-55 c-1 -10 -2 -22 -3 -28 0 -5 -12 -10 -26 -10 -20 0 -25 5 -25 23 0 30 9 39
35 35 12 -2 20 -10 19 -20z"/>
<path d="M6011 2838 c-25 -26 -35 -73 -32 -145 1 -37 44 -93 71 -93 11 0 29
10 40 23 l21 22 -3 -39 c-4 -49 -28 -68 -56 -43 -23 21 -72 23 -72 3 0 -27 44
-67 79 -72 18 -3 47 0 63 7 48 20 58 58 58 219 l0 141 -32 -5 c-17 -2 -34 -10
-39 -17 -5 -9 -11 -8 -24 4 -23 23 -50 21 -74 -5z m99 -92 c0 -49 -11 -76 -30
-76 -31 0 -42 87 -14 115 22 22 44 2 44 -39z"/>
<path d="M6251 2850 c-16 -10 -13 -167 5 -201 29 -57 99 -71 153 -32 30 23 36
52 36 163 0 74 0 75 -25 74 -47 -3 -51 -4 -49 -16 1 -7 1 -50 0 -95 -1 -82 -1
-83 -26 -83 -24 0 -25 3 -26 68 -1 37 -1 79 -1 95 0 15 -5 27 -11 28 -7 0 -19
2 -28 4 -9 1 -22 0 -28 -5z"/>
<path d="M6601 2841 c-16 -16 -20 -17 -25 -5 -3 8 -19 14 -38 14 l-33 0 -2
-125 -3 -125 38 0 37 0 2 82 c3 87 13 108 55 108 14 0 18 8 18 35 0 40 -19 46
-49 16z"/>
<path d="M6717 2842 c-9 -10 -21 -42 -27 -71 -22 -117 30 -205 97 -164 14 8
24 9 28 3 3 -6 22 -10 41 -10 l34 0 0 130 c0 143 -2 147 -62 116 -23 -12 -29
-12 -39 0 -16 20 -53 18 -72 -4z m94 -85 c6 -51 -1 -88 -18 -94 -21 -8 -33 15
-33 68 0 71 44 93 51 26z"/>
<path d="M7050 2843 c-17 -12 -25 -13 -28 -5 -2 7 -19 12 -38 12 l-34 0 -1
-72 c0 -40 -1 -95 -2 -123 l-2 -50 40 0 40 0 2 70 c1 39 2 78 2 88 1 13 7 17
24 15 20 -3 22 -8 23 -78 1 -41 2 -81 3 -87 1 -8 15 -13 36 -13 l36 0 -2 116
c-2 104 -4 117 -23 130 -27 18 -46 18 -76 -3z"/>
<path d="M7411 2834 c-21 -27 -25 -50 -23 -133 1 -54 16 -85 49 -100 20 -9 30
-9 49 4 14 9 25 11 29 5 3 -6 22 -10 41 -10 l34 0 0 130 c0 143 -2 147 -60
117 -22 -11 -28 -11 -38 0 -21 21 -59 15 -81 -13z m100 -75 c4 -90 2 -101 -23
-97 -20 3 -23 10 -26 56 -4 56 9 85 34 75 8 -3 15 -18 15 -34z"/>
<path d="M8190 2833 c-54 -50 -56 -165 -4 -214 35 -33 94 -32 129 1 14 13 24
31 23 39 -4 20 -43 24 -58 6 -26 -31 -59 -10 -60 38 0 4 27 7 60 7 33 0 60 3
61 8 0 4 2 16 4 26 5 28 -19 81 -46 100 -35 24 -74 20 -109 -11z m86 -56 c-1
-30 -56 -39 -56 -8 0 11 7 27 16 36 20 20 42 5 40 -28z"/>
<path d="M8687 2843 c-14 -15 -19 -15 -26 -5 -5 8 -21 12 -40 10 l-33 -3 -4
-123 -4 -123 38 3 37 3 5 85 5 85 33 10 c28 8 32 14 32 42 0 37 -16 43 -43 16z"/>
<path d="M8805 2836 c-63 -63 -50 -197 22 -231 72 -35 133 12 141 108 5 65
-18 124 -55 138 -42 16 -83 10 -108 -15z m87 -63 c3 -67 0 -105 -11 -116 -28
-28 -52 56 -35 121 9 33 44 29 46 -5z"/>
<path d="M9122 2838 c-19 -19 -22 -20 -22 -5 0 13 -9 17 -37 17 l-38 0 -3
-125 -2 -125 40 0 40 0 1 83 c1 45 1 85 0 90 0 4 10 7 24 7 25 0 25 -1 25 -90
l0 -90 40 0 40 0 -5 111 c-4 86 -8 116 -21 130 -23 25 -55 24 -82 -3z"/>
<path d="M9290 2731 l0 -132 37 3 38 3 -3 119 c-1 66 -4 121 -5 123 -2 1 -18
6 -35 9 l-32 7 0 -132z"/>
<path d="M9626 2838 c-34 -52 -39 -162 -10 -206 8 -12 26 -28 39 -34 21 -9 29
-8 45 7 16 14 23 16 32 7 7 -7 25 -12 40 -12 l28 0 0 130 0 130 -32 -4 c-18
-2 -34 -9 -36 -15 -2 -7 -11 -6 -25 4 -31 22 -64 18 -81 -7z m100 -112 c-2
-22 -4 -47 -5 -53 -1 -19 -38 -16 -45 3 -12 31 -6 93 11 109 16 16 17 16 29 0
8 -10 12 -36 10 -59z"/>
</g>
</svg>
